<svg width="16" height="17" viewBox="0 0 16 17" fill="none" xmlns="http://www.w3.org/2000/svg">
<path fill-rule="evenodd" clip-rule="evenodd" d="M1 8.50002C1 8.36741 1.05268 8.24024 1.14645 8.14647C1.24021 8.0527 1.36739 8.00002 1.5 8.00002H13.293L10.146 4.85402C10.0521 4.76013 9.99937 4.6328 9.99937 4.50002C9.99937 4.36725 10.0521 4.23991 10.146 4.14602C10.2399 4.05213 10.3672 3.99939 10.5 3.99939C10.6328 3.99939 10.7601 4.05213 10.854 4.14602L14.854 8.14602C14.9006 8.19247 14.9375 8.24764 14.9627 8.30839C14.9879 8.36913 15.0009 8.43425 15.0009 8.50002C15.0009 8.56579 14.9879 8.63091 14.9627 8.69165C14.9375 8.7524 14.9006 8.80757 14.854 8.85402L10.854 12.854C10.7601 12.9479 10.6328 13.0007 10.5 13.0007C10.3672 13.0007 10.2399 12.9479 10.146 12.854C10.0521 12.7601 9.99937 12.6328 9.99937 12.5C9.99937 12.3672 10.0521 12.2399 10.146 12.146L13.293 9.00002H1.5C1.36739 9.00002 1.24021 8.94734 1.14645 8.85357C1.05268 8.75981 1 8.63263 1 8.50002Z" fill="white"/>
</svg>
