<svg width="43" height="44" viewBox="0 0 43 44" fill="none" xmlns="http://www.w3.org/2000/svg">
<path d="M7.16667 34.5417V11.6083C7.16667 9.60149 7.16667 8.59805 7.55724 7.83154C7.90077 7.15728 8.44895 6.6091 9.12321 6.26557C9.88972 5.875 10.8932 5.875 12.9 5.875H30.1C32.1069 5.875 33.1104 5.875 33.8769 6.26557C34.5511 6.6091 35.0993 7.15728 35.4428 7.83154C35.8334 8.59805 35.8334 9.60149 35.8334 11.6083V30.9583H10.75C8.77099 30.9583 7.16667 32.5626 7.16667 34.5417ZM7.16667 34.5417C7.16667 36.5207 8.77099 38.125 10.75 38.125H35.8334M16.125 13.0417H26.875M16.125 20.2083H26.875M34.0417 30.9583V38.125" stroke="#5C5C5C" stroke-width="2" stroke-linecap="round" stroke-linejoin="round"/>
</svg>
