<svg width="31" height="31" viewBox="0 0 31 31" fill="none" xmlns="http://www.w3.org/2000/svg">
<path fill-rule="evenodd" clip-rule="evenodd" d="M11.9079 9.9704C11.9979 9.88018 12.1048 9.8086 12.2225 9.75977C12.3401 9.71093 12.4663 9.68579 12.5937 9.68579C12.7212 9.68579 12.8473 9.71093 12.965 9.75977C13.0827 9.8086 13.1896 9.88018 13.2796 9.9704L15.5 12.1927L17.7204 9.9704C17.9023 9.78849 18.149 9.6863 18.4062 9.6863C18.6635 9.6863 18.9102 9.78849 19.0921 9.9704C19.274 10.1523 19.3762 10.399 19.3762 10.6563C19.3762 10.9135 19.274 11.1602 19.0921 11.3421L16.8698 13.5625L19.0921 15.7829C19.274 15.9648 19.3762 16.2115 19.3762 16.4688C19.3762 16.726 19.274 16.9727 19.0921 17.1546C18.9102 17.3365 18.6635 17.4387 18.4062 17.4387C18.149 17.4387 17.9023 17.3365 17.7204 17.1546L15.5 14.9323L13.2796 17.1546C13.1895 17.2447 13.0826 17.3162 12.9649 17.3649C12.8473 17.4137 12.7211 17.4387 12.5937 17.4387C12.4664 17.4387 12.3402 17.4137 12.2225 17.3649C12.1049 17.3162 11.9979 17.2447 11.9079 17.1546C11.8178 17.0646 11.7463 16.9576 11.6976 16.84C11.6489 16.7223 11.6238 16.5961 11.6238 16.4688C11.6238 16.3414 11.6489 16.2153 11.6976 16.0976C11.7463 15.9799 11.8178 15.873 11.9079 15.7829L14.1302 13.5625L11.9079 11.3421C11.8177 11.2522 11.7461 11.1453 11.6972 11.0276C11.6484 10.9099 11.6233 10.7837 11.6233 10.6563C11.6233 10.5288 11.6484 10.4027 11.6972 10.285C11.7461 10.1673 11.8177 10.0604 11.9079 9.9704Z" fill="white" style="mix-blend-mode:overlay"/>
<path d="M3.875 3.875C3.875 2.84728 4.28326 1.86166 5.00996 1.13496C5.73666 0.408257 6.72229 0 7.75 0L23.25 0C24.2777 0 25.2633 0.408257 25.99 1.13496C26.7167 1.86166 27.125 2.84728 27.125 3.875V30.0312C27.1249 30.2065 27.0773 30.3784 26.9872 30.5287C26.8971 30.679 26.768 30.8021 26.6135 30.8848C26.459 30.9675 26.285 31.0067 26.11 30.9984C25.9349 30.99 25.7654 30.9343 25.6196 30.8372L15.5 25.3832L5.38044 30.8372C5.23455 30.9343 5.06507 30.99 4.89004 30.9984C4.71501 31.0067 4.54098 30.9675 4.3865 30.8848C4.23202 30.8021 4.10286 30.679 4.01278 30.5287C3.92271 30.3784 3.87509 30.2065 3.875 30.0312V3.875ZM7.75 1.9375C7.23614 1.9375 6.74333 2.14163 6.37998 2.50498C6.01663 2.86833 5.8125 3.36114 5.8125 3.875V28.2216L14.9633 23.4127C15.1223 23.3069 15.309 23.2505 15.5 23.2505C15.691 23.2505 15.8777 23.3069 16.0367 23.4127L25.1875 28.2216V3.875C25.1875 3.36114 24.9834 2.86833 24.62 2.50498C24.2567 2.14163 23.7639 1.9375 23.25 1.9375H7.75Z" fill="white" style="mix-blend-mode:overlay"/>
</svg>
