<svg width="55" height="55" viewBox="0 0 55 55" fill="none" xmlns="http://www.w3.org/2000/svg">
<g clip-path="url(#clip0_187_399)">
<path d="M53.2406 0.635742H24.0032C23.0305 0.635742 22.2438 1.42492 22.2438 2.39617V14.8132L23.5159 13.3258C24.12 12.6187 24.9163 12.1826 25.7627 12.0004V4.15593H51.4809V27.1426H25.7628V23.2947L24.9705 24.2212C24.2781 25.0291 23.3007 25.5305 22.2438 25.6293V28.9024C22.2438 29.8737 23.0305 30.6619 24.0032 30.6619H33.4987L28.6746 52.5635C28.4584 53.5457 29.0792 54.517 30.0621 54.7337C31.0362 54.9477 32.0156 54.329 32.2297 53.3479L37.2261 30.662H40.1306L45.127 53.3479C45.3143 54.1972 46.0676 54.7768 46.9031 54.7758C47.0328 54.7758 47.1654 54.7626 47.2967 54.7337C48.2796 54.517 48.9002 53.5458 48.6822 52.5635L43.8585 30.6619H53.2407C54.2125 30.6619 55.0001 29.8737 55.0001 28.9024V2.39617C55 1.42492 54.2124 0.635742 53.2406 0.635742Z" fill="black"/>
<path d="M39.2644 10.9146C39.1258 10.565 38.7326 10.3934 38.3833 10.5318L28.0174 14.1905C27.0661 13.454 25.6935 13.5856 24.9001 14.5083L21.6109 18.3494L18.6943 15.8494C18.7136 16.0558 18.7573 16.2564 18.7573 16.4683V21.8956L20.3799 23.2859C21.3429 24.1106 22.7833 23.9832 23.5885 23.0389L27.5043 18.4599L30.6623 16.6124L38.9735 11.7497C39.2608 11.5841 39.3882 11.23 39.2644 10.9146Z" fill="black"/>
<path d="M12.3545 11.8877H10.4011C8.90543 11.8877 7.59028 12.6146 6.75434 13.7226L0.758265 19.2431C-0.176009 20.0753 -0.260749 21.5169 0.580581 22.4568L5.47257 27.9171C6.30659 28.851 7.75032 28.9336 8.68448 28.0943C9.62111 27.2548 9.70023 25.8171 8.86092 24.8816L5.48897 21.1161L10.2785 16.8304L7.48902 20.6202L10.2177 23.6666C11.7254 25.3516 11.5833 27.9404 9.89916 29.4493C8.74932 30.4801 7.18018 30.722 5.81984 30.2466C5.81984 30.2466 5.84097 40.7726 5.84097 52.0454C5.84097 53.5532 7.06307 54.7754 8.57097 54.7754C10.0773 54.7754 11.301 53.5532 11.301 52.0454C11.301 40.7761 11.301 47.207 11.301 35.775H13.122C13.122 47.1987 13.122 40.7726 13.122 52.0454C13.122 52.8326 12.9025 53.5615 12.5525 54.2067C13.0106 54.5591 13.5806 54.7754 14.2019 54.7754C15.7106 54.7754 16.9327 53.5532 16.9327 52.0454C16.9327 40.7761 16.9362 45.5003 16.9362 16.468C16.9364 13.9383 14.8857 11.8877 12.3545 11.8877Z" fill="black"/>
<path d="M8.94511 10.2494C9.67507 10.6288 10.4946 10.8643 11.3749 10.8643C12.2575 10.8643 13.077 10.6288 13.8091 10.2487C15.5178 9.36344 16.6957 7.60099 16.6957 5.54397C16.6957 2.60549 14.3135 0.224121 11.3748 0.224121C8.43656 0.224121 6.05496 2.60549 6.05496 5.54397C6.05507 7.60211 7.23413 9.36524 8.94511 10.2494Z" fill="black"/>
</g>
<defs>
<clipPath id="clip0_187_399">
<rect width="55" height="55" fill="white"/>
</clipPath>
</defs>
</svg>
