<svg width="37" height="37" viewBox="0 0 37 37" fill="none" xmlns="http://www.w3.org/2000/svg">
<g clip-path="url(#clip0_5_6)">
<path d="M14.7723 30.7309C14.429 30.74 14.1279 30.4871 14.0798 30.1408C14.0286 29.7795 14.2725 29.4452 14.6278 29.376C14.2363 27.1568 13.1674 25.9343 12.0383 24.6426C11.159 23.6369 10.2467 22.592 9.52702 21.0534C8.81942 19.5388 8.43099 17.9731 8.44304 16.3471C8.45809 14.7211 8.87061 13.047 9.76791 11.3156C9.77393 11.3035 9.77995 11.2945 9.78597 11.2825C10.9633 9.28914 12.6104 7.95825 14.4441 7.21151C15.9827 6.58219 17.6539 6.36841 19.2919 6.51896C20.9239 6.66951 22.5228 7.1814 23.9199 8.00643C25.6965 9.05729 27.1568 10.617 27.9608 12.5863C28.3944 13.6522 28.6895 14.8415 28.7256 16.1453C28.7617 17.4431 28.5389 18.8433 27.9397 20.3247C27.1388 22.309 26.0789 23.5405 25.0882 24.6938C24.1759 25.7567 23.3267 26.7443 22.854 28.2589C23.122 28.3221 23.3328 28.5419 23.3749 28.831C23.4261 29.2043 23.1641 29.5506 22.7908 29.6018L22.5589 29.6349C22.5168 29.9631 22.4897 30.3154 22.4776 30.6918L22.5529 30.6798C22.9263 30.6286 23.2725 30.8905 23.3237 31.2639C23.3749 31.6373 23.113 31.9836 22.7396 32.0347L22.5047 32.0679C22.5077 32.113 22.5107 32.1582 22.5138 32.2034C22.5348 32.4683 22.5378 32.7243 22.5228 32.9682L22.5619 32.9622C22.9383 32.917 23.2786 33.185 23.3267 33.5583C23.3719 33.9347 23.1039 34.275 22.7305 34.3232L22.2247 34.3864C21.8634 35.3228 21.219 36.0364 20.4572 36.4761C19.9333 36.7802 19.3521 36.9548 18.768 36.991C18.1748 37.0271 17.5756 36.9157 17.0276 36.6507C16.4013 36.3436 15.8412 35.8347 15.4347 35.103C15.239 35.0037 15.0945 34.8109 15.0644 34.5761C15.0523 34.4827 15.0614 34.3924 15.0855 34.3081C14.968 33.9588 14.8807 33.5764 14.8235 33.1549L14.8024 33.1579C14.429 33.2091 14.0828 32.9471 14.0316 32.5737C13.9804 32.2003 14.2424 31.8541 14.6157 31.8029L14.7783 31.7788C14.7904 31.4114 14.7874 31.0622 14.7723 30.7309ZM2.14088 17.7231C1.78858 17.7322 1.49651 17.4582 1.48446 17.1059C1.47242 16.7536 1.74944 16.4615 2.10173 16.4495L4.72136 16.3591C5.07365 16.3471 5.36573 16.6241 5.37777 16.9764C5.38982 17.3287 5.1128 17.6208 4.7605 17.6328L2.14088 17.7231ZM34.811 15.1306C35.1602 15.0945 35.4734 15.3504 35.5095 15.6997C35.5457 16.049 35.2897 16.3621 34.9404 16.3983L32.3328 16.6723C31.9836 16.7084 31.6704 16.4525 31.6343 16.1032C31.5981 15.7539 31.8541 15.4408 32.2034 15.4046L34.811 15.1306ZM30.0625 4.45036C30.2582 4.15828 30.6527 4.08 30.9447 4.27572C31.2368 4.47144 31.3151 4.86589 31.1194 5.15796L29.662 7.33797C29.4663 7.63004 29.0719 7.70833 28.7798 7.51261C28.4877 7.31689 28.4094 6.92244 28.6051 6.63037L30.0625 4.45036ZM18.8372 0.620281C18.8463 0.267986 19.1383 -0.00903204 19.4876 1.1582e-06C19.8399 0.00903436 20.1169 0.301108 20.1079 0.650392L20.0417 3.27002C20.0326 3.62231 19.7406 3.89933 19.3913 3.8903C19.039 3.88127 18.762 3.58919 18.771 3.23991L18.8372 0.620281ZM5.66382 4.67619C5.40487 4.4353 5.39283 4.03182 5.6307 3.77588C5.87159 3.51693 6.27507 3.50488 6.53101 3.74276L8.44906 5.53133C8.70801 5.77222 8.72006 6.1757 8.48218 6.43164C8.2413 6.69059 7.83781 6.70264 7.58187 6.46476L5.66382 4.67619ZM15.9015 29.1923L21.4689 28.4004C21.9477 26.383 22.9895 25.1695 24.1187 23.8597C25.0461 22.7817 26.0337 21.6315 26.7563 19.8429C27.2863 18.5331 27.482 17.3046 27.4519 16.1724C27.4218 15.0433 27.1628 14.0015 26.7774 13.059C26.0849 11.3638 24.8172 10.0148 23.2695 9.09945C22.032 8.36776 20.6198 7.91308 19.1775 7.78361C17.7412 7.65112 16.2748 7.84082 14.9229 8.39184C13.339 9.03922 11.9148 10.1895 10.891 11.9208C10.0961 13.4625 9.72876 14.9379 9.71672 16.3561C9.70468 17.7834 10.0509 19.1654 10.6803 20.5114C11.3216 21.8844 12.1768 22.86 12.9958 23.7995C14.2725 25.2629 15.4799 26.6449 15.9015 29.1923ZM21.2431 29.8156L16.043 30.5533C16.058 30.8845 16.064 31.2308 16.058 31.5981L21.1919 30.8695C21.1979 30.4991 21.213 30.1468 21.2431 29.8156ZM16.0851 32.9772C16.1213 33.2542 16.1755 33.5072 16.2447 33.742L21.228 33.1278C21.2612 32.8688 21.2672 32.5948 21.2431 32.3027V32.2967L21.2401 32.2455L16.0851 32.9772ZM16.9523 35.0368C17.145 35.2385 17.3588 35.3951 17.5846 35.5035C17.9309 35.6721 18.3133 35.7414 18.6897 35.7203C19.0781 35.6962 19.4635 35.5788 19.8158 35.374C20.1471 35.1813 20.4451 34.9133 20.683 34.5761L16.9523 35.0368Z" fill="#3366FF"/>
</g>
<defs>
<clipPath id="clip0_5_6">
<rect width="37" height="37" fill="white"/>
</clipPath>
</defs>
</svg>
