<svg width="55" height="55" viewBox="0 0 55 55" fill="none" xmlns="http://www.w3.org/2000/svg">
<path d="M13.2687 30.0885L32.1131 46.5747C34.3337 48.5204 37.8125 46.9391 37.8125 43.9863V11.0138C37.8131 10.353 37.6231 9.70598 37.2655 9.1503C36.9078 8.59463 36.3975 8.15384 35.7957 7.88071C35.194 7.60758 34.5263 7.51369 33.8725 7.61029C33.2188 7.70689 32.6067 7.98988 32.1097 8.42538L13.2722 24.9116C12.9029 25.2343 12.607 25.6322 12.4043 26.0786C12.2015 26.5251 12.0966 27.0097 12.0966 27.5001C12.0966 27.9904 12.2015 28.475 12.4043 28.9215C12.607 29.3679 12.9029 29.7658 13.2722 30.0885H13.2687Z" fill="white"/>
</svg>
