<svg width="55" height="55" viewBox="0 0 55 55" fill="none" xmlns="http://www.w3.org/2000/svg">
<path d="M41.7313 30.0885L22.8869 46.5747C20.6663 48.5204 17.1875 46.9391 17.1875 43.9863V11.0138C17.1869 10.353 17.3769 9.70598 17.7345 9.1503C18.0922 8.59463 18.6025 8.15384 19.2043 7.88071C19.806 7.60758 20.4737 7.51369 21.1275 7.61029C21.7812 7.70689 22.3933 7.98988 22.8903 8.42538L41.7278 24.9116C42.0971 25.2343 42.393 25.6322 42.5957 26.0786C42.7985 26.5251 42.9034 27.0097 42.9034 27.5001C42.9034 27.9904 42.7985 28.475 42.5957 28.9215C42.393 29.3679 42.0971 29.7658 41.7278 30.0885H41.7313Z" fill="white"/>
</svg>
