<svg width="29" height="29" viewBox="0 0 29 29" fill="none" xmlns="http://www.w3.org/2000/svg">
<g clip-path="url(#clip0_668_2998)">
<path d="M22.3917 7.89277C22.4759 7.80851 22.5428 7.70848 22.5884 7.59839C22.634 7.4883 22.6574 7.37031 22.6574 7.25114C22.6574 7.13198 22.634 7.01399 22.5884 6.9039C22.5428 6.79381 22.4759 6.69378 22.3917 6.60952C22.3074 6.52526 22.2074 6.45842 22.0973 6.41282C21.9872 6.36722 21.8692 6.34375 21.75 6.34375C21.6309 6.34375 21.5129 6.36722 21.4028 6.41282C21.2927 6.45842 21.1927 6.52526 21.1084 6.60952L9.06255 18.6572L3.36042 12.9533C3.27616 12.869 3.17613 12.8022 3.06604 12.7566C2.95595 12.711 2.83796 12.6875 2.7188 12.6875C2.47814 12.6875 2.24734 12.7831 2.07717 12.9533C1.907 13.1234 1.8114 13.3542 1.8114 13.5949C1.8114 13.8355 1.907 14.0663 2.07717 14.2365L8.42092 20.5803C8.5051 20.6647 8.60511 20.7316 8.71521 20.7773C8.82531 20.823 8.94334 20.8465 9.06255 20.8465C9.18175 20.8465 9.29978 20.823 9.40988 20.7773C9.51998 20.7316 9.61999 20.6647 9.70417 20.5803L22.3917 7.89277ZM14.7647 20.5803L13.1407 18.9545L14.4221 17.673L15.4063 18.6572L27.4522 6.60952C27.6223 6.43935 27.8531 6.34375 28.0938 6.34375C28.3345 6.34375 28.5653 6.43935 28.7354 6.60952C28.9056 6.77969 29.0012 7.01049 29.0012 7.25114C29.0012 7.4918 28.9056 7.7226 28.7354 7.89277L16.0479 20.5803C15.9637 20.6647 15.8637 20.7316 15.7536 20.7773C15.6435 20.823 15.5255 20.8465 15.4063 20.8465C15.2871 20.8465 15.1691 20.823 15.059 20.7773C14.9489 20.7316 14.8489 20.6647 14.7647 20.5803Z" fill="#2AACDF"/>
<path d="M9.70417 12.9533L11.3282 14.5791L10.0467 15.8605L8.42092 14.2365C8.25075 14.0664 8.15515 13.8356 8.15515 13.5949C8.15515 13.3542 8.25075 13.1234 8.42092 12.9533C8.59109 12.7831 8.82189 12.6875 9.06255 12.6875C9.3032 12.6875 9.534 12.7831 9.70417 12.9533Z" fill="#2AACDF"/>
</g>
<defs>
<clipPath id="clip0_668_2998">
<rect width="29" height="29" fill="white"/>
</clipPath>
</defs>
</svg>
