<svg width="19" height="19" viewBox="0 0 19 19" fill="none" xmlns="http://www.w3.org/2000/svg">
<path fill-rule="evenodd" clip-rule="evenodd" d="M5.51709 1.95569C5.57224 1.90039 5.63776 1.85652 5.7099 1.82659C5.78203 1.79666 5.85936 1.78125 5.93746 1.78125C6.01556 1.78125 6.09289 1.79666 6.16503 1.82659C6.23716 1.85652 6.30268 1.90039 6.35784 1.95569L13.4828 9.08069C13.5381 9.13584 13.582 9.20136 13.6119 9.2735C13.6419 9.34563 13.6573 9.42296 13.6573 9.50106C13.6573 9.57916 13.6419 9.65649 13.6119 9.72863C13.582 9.80076 13.5381 9.86628 13.4828 9.92144L6.35784 17.0464C6.24635 17.1579 6.09513 17.2206 5.93746 17.2206C5.77979 17.2206 5.62858 17.1579 5.51709 17.0464C5.4056 16.9349 5.34296 16.7837 5.34296 16.6261C5.34296 16.4684 5.4056 16.3172 5.51709 16.2057L12.2229 9.50106L5.51709 2.79644C5.46179 2.74128 5.41792 2.67576 5.38799 2.60363C5.35806 2.53149 5.34265 2.45416 5.34265 2.37606C5.34265 2.29796 5.35806 2.22063 5.38799 2.1485C5.41792 2.07636 5.46179 2.01084 5.51709 1.95569Z" fill="#3366FF"/>
</svg>
