<svg width="30" height="31" viewBox="0 0 30 31" fill="none" xmlns="http://www.w3.org/2000/svg">
<g clip-path="url(#clip0_3_17)">
<path d="M13.125 15.5C13.9955 15.4999 14.8574 15.673 15.6604 16.0092C16.4634 16.3455 17.1915 16.8381 17.8022 17.4585C18.413 18.0788 18.8942 18.8145 19.2178 19.6226C19.5415 20.4307 19.7012 21.2952 19.6875 22.1657C19.6852 22.31 19.7163 22.4529 19.7783 22.5832C19.8403 22.7135 19.9316 22.8278 20.045 22.9171C20.1584 23.0064 20.2909 23.0683 20.4321 23.0979C20.5734 23.1276 20.7196 23.1243 20.8594 23.0882C21.275 22.982 21.7094 22.9721 22.1294 23.0592C22.5494 23.1464 22.944 23.3283 23.2831 23.591C23.6221 23.8538 23.8968 24.1905 24.086 24.5755C24.2752 24.9605 24.3741 25.3836 24.375 25.8125C24.375 26.5584 24.0787 27.2738 23.5512 27.8013C23.0238 28.3287 22.3084 28.625 21.5625 28.625H5.62498C5.12642 28.6222 4.63343 28.52 4.17484 28.3244C3.71625 28.1288 3.30127 27.8437 2.95418 27.4858C2.60708 27.1279 2.33484 26.7044 2.15337 26.24C1.97191 25.7756 1.88486 25.2797 1.89733 24.7813C1.9098 24.2829 2.02153 23.792 2.22598 23.3373C2.43043 22.8826 2.72351 22.4732 3.08806 22.1331C3.45262 21.793 3.88133 21.529 4.34912 21.3565C4.81692 21.1841 5.3144 21.1067 5.81248 21.1288C6.02821 21.1395 6.24101 21.0753 6.4149 20.9472C6.5888 20.8191 6.71312 20.6349 6.76685 20.4256C7.13004 19.0156 7.95185 17.7664 9.10291 16.8747C10.254 15.9829 11.6689 15.4993 13.125 15.5ZM21.5118 21.125C21.3009 19.224 20.4503 17.4511 19.0996 16.097C17.7488 14.7428 15.9781 13.8877 14.0776 13.672C12.1772 13.4562 10.2598 13.8925 8.63989 14.9094C7.01996 15.9263 5.79359 17.4635 5.16185 19.2688C3.71424 19.3873 2.36858 20.0611 1.40654 21.1493C0.444498 22.2374 -0.0593334 23.6556 0.000508189 25.1068C0.0603498 26.558 0.679225 27.9298 1.72759 28.9351C2.77595 29.9403 4.17253 30.5011 5.62498 30.5H21.5625C22.8057 30.5 23.998 30.0062 24.877 29.1271C25.7561 28.248 26.25 27.0557 26.25 25.8125C26.25 24.5693 25.7561 23.377 24.877 22.498C23.998 21.6189 22.8057 21.125 21.5625 21.125H21.5118Z" fill="white"/>
<path d="M21.1613 3.83375C21.269 3.67248 21.3241 3.48176 21.319 3.28786C21.3138 3.09397 21.2486 2.90645 21.1324 2.75116C21.0162 2.59587 20.8547 2.48044 20.6701 2.4208C20.4855 2.36115 20.287 2.36022 20.1019 2.41812C18.1605 3.02611 16.4969 4.30145 15.4056 6.01833C14.3143 7.73522 13.8658 9.78288 14.1394 11.7987C14.81 11.8644 15.4725 11.9957 16.1175 12.1906C15.8273 10.9567 15.8904 9.666 16.2996 8.46628C16.7088 7.26655 17.4475 6.20629 18.4313 5.40687C18.1065 6.65904 18.0681 7.96827 18.3187 9.23735C18.5693 10.5064 19.1026 11.7027 19.879 12.7374C20.6554 13.7721 21.6549 14.6186 22.8033 15.2141C23.9517 15.8095 25.2195 16.1386 26.5125 16.1769C25.2835 17.0304 23.8046 17.4488 22.3106 17.3656C22.6156 17.9619 22.8619 18.5869 23.0494 19.2406C24.4032 19.183 25.7242 18.8065 26.9049 18.1418C28.0857 17.4772 29.0929 16.5431 29.8444 15.4156C29.9522 15.2544 30.0073 15.0636 30.0021 14.8697C29.9969 14.6758 29.9317 14.4883 29.8155 14.333C29.6993 14.1777 29.5378 14.0623 29.3532 14.0027C29.1687 13.943 28.9701 13.9421 28.785 14C27.4551 14.4174 26.0284 14.4121 24.7017 13.9846C23.3749 13.5572 22.2134 12.7288 21.3773 11.6135C20.5411 10.4982 20.0715 9.15104 20.0332 7.75767C19.9948 6.36429 20.3877 4.99332 21.1613 3.83375Z" fill="white"/>
</g>
<defs>
<clipPath id="clip0_3_17">
<rect width="30" height="30" fill="white" transform="translate(0 0.5)"/>
</clipPath>
</defs>
</svg>
