<svg width="39" height="39" viewBox="0 0 39 39" fill="none" xmlns="http://www.w3.org/2000/svg">
<path d="M25.7158 20.1919C26.1356 19.6101 26.5904 19.1365 27.1087 18.7783C27.8396 18.2732 28.7573 17.9559 30.0117 17.9559C32.2554 17.9559 33.8343 19.1922 34.9019 21.0289C35.8085 22.5886 36.2999 24.5215 36.4366 26.277L29.992 26.2289C29.0809 24.0071 27.7717 21.624 25.7158 20.1919ZM8.98828 6.88047C9.92693 6.88047 10.7997 7.17726 11.5134 7.68286C10.7328 8.96747 10.2734 10.4836 10.2734 12.0961C10.2734 13.2035 10.4854 14.2626 10.8712 15.2332C10.3036 15.5004 9.66517 15.6512 8.98828 15.6512C6.56802 15.6512 4.59531 13.69 4.59531 11.2582C4.59531 8.84347 6.56618 6.88047 8.98828 6.88047ZM11.8913 18.7326C12.4104 19.0913 12.8658 19.5659 13.2862 20.1489C11.231 21.5866 9.92093 23.9591 9.00812 26.1832L2.56341 26.2313C2.70014 24.4758 3.1915 22.5429 4.09806 20.9832C5.16567 19.1465 6.74464 17.9102 8.98828 17.9102C10.2427 17.9102 11.1604 18.2275 11.8913 18.7326ZM28.7266 12.157C28.7266 10.5372 28.2802 9.01672 27.4904 7.72589C28.2034 7.22192 29.0747 6.92617 30.0117 6.92617C32.432 6.92617 34.4047 8.88733 34.4047 11.3191C34.4047 13.751 32.432 15.7121 30.0117 15.7121C29.3348 15.7121 28.6964 15.5613 28.1288 15.2942C28.5146 14.3235 28.7266 13.2645 28.7266 12.157Z" stroke="#3366FF" stroke-width="2"/>
<mask id="path-2-inside-1_393_1989" fill="white">
<path d="M9.30823 34.2164C9.30823 28.2902 11.959 19.9723 19.4696 19.9723C26.9649 19.9723 29.8594 28.4426 29.8594 34.3535"/>
</mask>
<path d="M11.3082 34.2164C11.3082 31.496 11.9258 28.3 13.3116 25.8596C14.6576 23.4894 16.6155 21.9723 19.4696 21.9723V17.9723C14.813 17.9723 11.6904 20.6141 9.83328 23.8844C8.01606 27.0845 7.30823 31.0106 7.30823 34.2164H11.3082ZM19.4696 21.9723C22.3098 21.9723 24.3334 23.5213 25.7462 25.9514C27.1916 28.4378 27.8594 31.6677 27.8594 34.3535H31.8594C31.8594 31.1284 31.08 27.1677 29.2043 23.9411C27.2959 20.6584 24.1246 17.9723 19.4696 17.9723V21.9723Z" fill="#3366FF" mask="url(#path-2-inside-1_393_1989)"/>
<path d="M19.4696 18.6371C15.8781 18.6371 12.9742 15.7333 12.9742 12.1418C12.9742 8.55033 15.8781 5.64648 19.4696 5.64648C23.061 5.64648 25.9649 8.55033 25.9649 12.1418C25.9649 15.7333 23.061 18.6371 19.4696 18.6371Z" stroke="#3366FF" stroke-width="2"/>
</svg>
