<svg width="51" height="51" viewBox="0 0 51 51" fill="none" xmlns="http://www.w3.org/2000/svg">
<path d="M33.1964 26.4844C33.8099 25.5846 34.4845 24.8489 35.2749 24.3027C36.2865 23.6037 37.5487 23.1727 39.2461 23.1727C42.3194 23.1727 44.4726 24.8765 45.907 27.3444C47.178 29.531 47.8342 32.2528 47.9775 34.672L39.0126 34.6051C37.7851 31.5645 36.0151 28.3185 33.1964 26.4844ZM11.7539 8.68945C13.1515 8.68945 14.4435 9.16714 15.4671 9.96922C14.3845 11.6522 13.7422 13.6679 13.7422 15.8176C13.7422 17.3259 14.0512 18.763 14.6097 20.067C13.7638 20.5167 12.7912 20.7742 11.7539 20.7742C8.41958 20.7742 5.70156 18.0724 5.70156 14.7219C5.70156 11.3931 8.41774 8.68945 11.7539 8.68945ZM15.7251 24.243C16.5165 24.7898 17.1917 25.5265 17.8057 26.4277C14.9878 28.2714 13.2169 31.502 11.9874 34.5453L3.0225 34.6122C3.16579 32.193 3.82199 29.4713 5.09298 27.2846C6.52739 24.8168 8.68058 23.1129 11.7539 23.1129C13.4512 23.1129 14.7135 23.5439 15.7251 24.243ZM37.2578 15.8973C37.2578 13.736 36.6334 11.7156 35.5368 10.0259C36.5599 9.22566 37.8503 8.74922 39.2461 8.74922C42.5804 8.74922 45.2984 11.451 45.2984 14.8016C45.2984 18.1521 42.5804 20.8539 39.2461 20.8539C38.2088 20.8539 37.2362 20.5964 36.3903 20.1466C36.9488 18.8427 37.2578 17.4056 37.2578 15.8973Z" fill="#22A4C8" stroke="#22A4C8" stroke-width="2"/>
<mask id="path-2-inside-1_188_375" fill="white">
<path d="M12.1723 44.7441C12.1723 36.9945 15.6387 26.1172 25.4602 26.1172C35.2617 26.1172 39.0469 37.1937 39.0469 44.9234"/>
</mask>
<path d="M12.1723 44.7441C12.1723 36.9945 15.6387 26.1172 25.4602 26.1172C35.2617 26.1172 39.0469 37.1937 39.0469 44.9234" fill="#22A4C8"/>
<path d="M14.1723 44.7441C14.1723 41.112 14.9937 36.8203 16.8723 33.5122C18.711 30.2741 21.4507 28.1172 25.4602 28.1172V24.1172C19.6482 24.1172 15.7438 27.3989 13.394 31.537C11.084 35.6049 10.1723 40.6266 10.1723 44.7441H14.1723ZM25.4602 28.1172C29.4535 28.1172 32.2764 30.3178 34.2 33.6268C36.1564 36.9921 37.0469 41.3283 37.0469 44.9234H41.0469C41.0469 40.7889 40.0448 35.722 37.6582 31.6165C35.2389 27.4549 31.2684 24.1172 25.4602 24.1172V28.1172Z" fill="#22A4C8" mask="url(#path-2-inside-1_188_375)"/>
<path d="M25.4602 24.6793C20.5937 24.6793 16.6586 20.7442 16.6586 15.8777C16.6586 11.0113 20.5937 7.07617 25.4602 7.07617C30.3266 7.07617 34.2617 11.0113 34.2617 15.8777C34.2617 20.7442 30.3266 24.6793 25.4602 24.6793Z" fill="#22A4C8" stroke="#22A4C8" stroke-width="2"/>
</svg>
