<svg width="96" height="95" viewBox="0 0 96 95" fill="none" xmlns="http://www.w3.org/2000/svg">
<g clip-path="url(#clip0_83_259)">
<path d="M45.4959 94.909C28.764 94.0777 13.472 84.5144 5.65998 69.7854C-2.72801 54.5141 -1.82401 34.6987 8.58798 20.4883C18.992 5.29621 37.988 -2.76296 57.1239 0.910373C75.4559 4.30267 90.5279 18.6991 94.5559 36.1831C99.0439 53.3781 92.8639 72.4929 78.8559 83.8415C69.6999 91.5721 57.6759 95.5423 45.4959 94.9129V94.909ZM76.3159 63.0444C72.0958 60.5415 67.8678 58.0517 63.6319 55.575C60.0199 61.4452 52.0919 64.4733 45.3519 62.1656C37.256 59.6362 31.776 50.3421 35.4 41.8435C38.604 33.8912 46.5599 31.1283 52.8279 32.0902C57.052 32.8793 60.8082 35.2445 63.3199 38.6966C67.6279 36.1989 71.8319 33.8754 76.0119 31.3539C67.8919 19.0118 51.4079 14.3568 37.388 20.4527C24.868 26.0854 17.828 38.9777 19.836 51.7987C21.996 66.0408 34.756 77.4725 50.6999 77.1479C55.8203 77.1012 60.8472 75.786 65.3218 73.3224C69.7964 70.8588 73.5761 67.3252 76.3159 63.0444Z" fill="#3366FF"/>
</g>
<defs>
<clipPath id="clip0_83_259">
<rect width="96" height="95" fill="white"/>
</clipPath>
</defs>
</svg>
