<svg width="20" height="21" viewBox="0 0 20 21" fill="none" xmlns="http://www.w3.org/2000/svg">
<g clip-path="url(#clip0_393_3079)">
<path d="M10 0.784668C5.85813 0.784668 2.5 4.14279 2.5 8.28467C2.5 9.91561 3.03469 11.4122 3.92344 12.6378C3.93938 12.6672 3.94187 12.7 3.96 12.7281L8.96 20.2281C9.19188 20.5759 9.5825 20.7847 10 20.7847C10.4175 20.7847 10.8081 20.5759 11.04 20.2281L16.04 12.7281C16.0584 12.7 16.0606 12.6672 16.0766 12.6378C16.9653 11.4122 17.5 9.91561 17.5 8.28467C17.5 4.14279 14.1419 0.784668 10 0.784668ZM10 10.7847C8.61937 10.7847 7.5 9.66529 7.5 8.28467C7.5 6.90404 8.61937 5.78467 10 5.78467C11.3806 5.78467 12.5 6.90404 12.5 8.28467C12.5 9.66529 11.3806 10.7847 10 10.7847Z" fill="white"/>
</g>
<defs>
<clipPath id="clip0_393_3079">
<rect width="20" height="20" fill="white" transform="translate(0 0.784668)"/>
</clipPath>
</defs>
</svg>
