<svg width="26" height="26" viewBox="0 0 26 26" fill="none" xmlns="http://www.w3.org/2000/svg">
<path d="M20.389 10.1667C20.389 11.6972 19.9351 13.1011 19.154 14.2728C18.014 15.9617 16.209 17.1544 14.1084 17.4606C13.7495 17.5239 13.3801 17.5556 13.0001 17.5556C12.6201 17.5556 12.2506 17.5239 11.8918 17.4606C9.7912 17.1544 7.9862 15.9617 6.84621 14.2728C6.06509 13.1011 5.61121 11.6972 5.61121 10.1667C5.61121 6.08167 8.91509 2.77779 13.0001 2.77779C17.0851 2.77779 20.389 6.08167 20.389 10.1667Z" stroke="white" stroke-width="2" stroke-linecap="round" stroke-linejoin="round"/>
<path d="M22.7639 20.1628L21.0223 20.5745C20.6317 20.6695 20.3256 20.965 20.2412 21.3556L19.8717 22.9072C19.6712 23.7517 18.5945 24.005 18.0351 23.34L13.0001 17.5556L7.96501 23.3506C7.40557 24.0156 6.3289 23.7622 6.12835 22.9178L5.7589 21.3661C5.6639 20.9756 5.35779 20.6695 4.97779 20.585L3.23613 20.1733C2.4339 19.9833 2.1489 18.9806 2.72946 18.4L6.84613 14.2833C7.98613 15.9722 9.79113 17.165 11.8917 17.4711C12.2506 17.5345 12.6201 17.5661 13.0001 17.5661C13.3801 17.5661 13.7495 17.5345 14.1084 17.4711C16.2089 17.165 18.0139 15.9722 19.1539 14.2833L23.2706 18.4C23.8512 18.97 23.5662 19.9728 22.7639 20.1628Z" stroke="white" stroke-width="2" stroke-linecap="round" stroke-linejoin="round"/>
<path d="M13.6123 6.9789L14.2351 8.22444C14.3195 8.39333 14.5412 8.56223 14.7417 8.5939L15.8712 8.78389C16.5889 8.9 16.7578 9.42778 16.2406 9.94501L15.3645 10.8211C15.2167 10.9689 15.1323 11.2539 15.1851 11.465L15.4384 12.5522C15.6389 13.4072 15.1851 13.745 14.4251 13.2911L13.3695 12.6683C13.1795 12.5522 12.8628 12.5522 12.6728 12.6683L11.6173 13.2911C10.8572 13.7345 10.4034 13.4072 10.6039 12.5522L10.8572 11.465C10.8995 11.2645 10.8256 10.9689 10.6778 10.8211L9.80169 9.94501C9.28447 9.42778 9.45336 8.91055 10.1711 8.78389L11.3006 8.5939C11.4906 8.56223 11.7123 8.39333 11.7967 8.22444L12.4195 6.9789C12.7256 6.30334 13.2745 6.30334 13.6123 6.9789Z" stroke="white" stroke-linecap="round" stroke-linejoin="round"/>
</svg>
