<svg width="48" height="49" viewBox="0 0 48 49" fill="none" xmlns="http://www.w3.org/2000/svg">
<circle cx="24" cy="24.5" r="24" fill="#3C3C3C"/>
<rect x="5" y="6" width="38" height="38" rx="19" stroke="white"/>
<path d="M34.7784 25.066C34.7776 19.114 29.9527 14.2891 24 14.2891C18.0473 14.2891 13.2216 19.1147 13.2216 25.0674C13.2216 30.4257 17.1316 34.8705 22.2534 35.7049L22.3152 35.7136V28.1825H19.5782V25.066H22.3152V22.6927C22.3016 22.5727 22.2944 22.4332 22.2944 22.2923C22.2944 20.1914 23.9978 18.488 26.0987 18.488C26.2001 18.488 26.3007 18.4923 26.4006 18.4995L26.3877 18.4988C27.2495 18.511 28.0832 18.5872 28.8968 18.723L28.8005 18.7094V21.3616H27.4406C27.3788 21.3529 27.3077 21.3479 27.2358 21.3479C26.3755 21.3479 25.6776 22.0451 25.6776 22.9062C25.6776 22.955 25.6797 23.0032 25.684 23.0513L25.6833 23.0449V25.066H28.6726L28.1946 28.1825H25.6833V35.7136C30.8676 34.8697 34.7776 30.4243 34.7784 25.066Z" fill="white"/>
</svg>
