<svg width="49" height="48" viewBox="0 0 49 48" fill="none" xmlns="http://www.w3.org/2000/svg">
<circle cx="24.5" cy="24" r="24" fill="#A97DFF"/>
<rect x="5.5" y="5.5" width="38" height="38" rx="19" stroke="white"/>
<g clip-path="url(#clip0_702_4396)">
<path d="M35.2784 24.566C35.2777 18.614 30.4527 13.7891 24.5001 13.7891C18.5474 13.7891 13.7217 18.6147 13.7217 24.5674C13.7217 29.9257 17.6317 34.3705 22.7535 35.2049L22.8153 35.2136V27.6825H20.0783V24.566H22.8153V22.1927C22.8016 22.0727 22.7945 21.9332 22.7945 21.7923C22.7945 19.6914 24.4979 17.988 26.5988 17.988C26.7001 17.988 26.8008 17.9923 26.9007 17.9995L26.8877 17.9988C27.7495 18.011 28.5833 18.0872 29.3969 18.223L29.3006 18.2094V20.8616H27.9407C27.8789 20.8529 27.8077 20.8479 27.7359 20.8479C26.8755 20.8479 26.1776 21.5451 26.1776 22.4062C26.1776 22.455 26.1798 22.5032 26.1841 22.5513L26.1834 22.5449V24.566H29.1726L28.6947 27.6825H26.1834V35.2136C31.3677 34.3697 35.2777 29.9243 35.2784 24.566Z" fill="white"/>
</g>
<defs>
<clipPath id="clip0_702_4396">
<rect width="23" height="23" fill="white" transform="translate(13 13)"/>
</clipPath>
</defs>
</svg>
