<svg width="23" height="23" viewBox="0 0 23 23" fill="none" xmlns="http://www.w3.org/2000/svg">
<path fill-rule="evenodd" clip-rule="evenodd" d="M6.67863 2.36619C6.74539 2.29925 6.82471 2.24615 6.91203 2.20991C6.99935 2.17368 7.09296 2.15503 7.1875 2.15503C7.28204 2.15503 7.37566 2.17368 7.46298 2.20991C7.5503 2.24615 7.62961 2.29925 7.69638 2.36619L16.3214 10.9912C16.3883 11.058 16.4414 11.1373 16.4777 11.2246C16.5139 11.3119 16.5325 11.4055 16.5325 11.5001C16.5325 11.5946 16.5139 11.6882 16.4777 11.7755C16.4414 11.8629 16.3883 11.9422 16.3214 12.0089L7.69638 20.6339C7.56142 20.7689 7.37837 20.8447 7.1875 20.8447C6.99664 20.8447 6.81359 20.7689 6.67863 20.6339C6.54367 20.499 6.46784 20.3159 6.46784 20.1251C6.46784 19.9342 6.54367 19.7512 6.67863 19.6162L14.7962 11.5001L6.67863 3.38394C6.61169 3.31717 6.55859 3.23786 6.52235 3.15054C6.48612 3.06322 6.46747 2.9696 6.46747 2.87506C6.46747 2.78052 6.48612 2.68691 6.52235 2.59959C6.55859 2.51227 6.61169 2.43295 6.67863 2.36619Z" fill="#464555"/>
</svg>
