<svg width="39" height="39" viewBox="0 0 39 39" fill="none" xmlns="http://www.w3.org/2000/svg">
<rect x="0.5" y="0.5" width="38" height="38" rx="19" stroke="white"/>
<g clip-path="url(#clip0_132_287)">
<path d="M27.5156 10H11.4844C10.6643 10 10 10.6643 10 11.4844V27.5156C10 28.3357 10.6643 29 11.4844 29H27.5156C28.3357 29 29 28.3357 29 27.5156V11.4844C29 10.6643 28.3357 10 27.5156 10ZM16.843 23.4744H14.9912V17.548H16.843V23.4744ZM15.867 16.8059H15.8521C15.1805 16.8059 14.7463 16.3531 14.7463 15.7779C14.7463 15.1916 15.1953 14.75 15.8781 14.75C16.5609 14.75 16.9803 15.1916 16.9951 15.7779C16.9988 16.3494 16.5646 16.8059 15.867 16.8059ZM24.25 23.4744H22.1496V20.4092C22.1496 19.6076 21.823 19.0584 21.0994 19.0584C20.5465 19.0584 20.2385 19.4295 20.0975 19.7857C20.0455 19.9119 20.0529 20.09 20.0529 20.2719V23.4744H17.9711C17.9711 23.4744 17.9971 18.0416 17.9711 17.548H20.0529V18.4795C20.1754 18.0713 20.8396 17.4924 21.901 17.4924C23.2184 17.4924 24.25 18.3459 24.25 20.1791V23.4744Z" fill="white"/>
</g>
<defs>
<clipPath id="clip0_132_287">
<rect width="19" height="19" fill="white" transform="translate(10 10)"/>
</clipPath>
</defs>
</svg>
