<svg width="39" height="39" viewBox="0 0 39 39" fill="none" xmlns="http://www.w3.org/2000/svg">
<rect x="0.5" y="0.5" width="38" height="38" rx="19" stroke="white"/>
<g clip-path="url(#clip0_132_288)">
<path fill-rule="evenodd" clip-rule="evenodd" d="M14.0436 7.64728C12.0901 7.73541 10.397 8.21301 9.02979 9.57442C7.65783 10.943 7.18617 12.6428 7.09781 14.576C7.04288 15.7826 6.7217 24.898 7.65306 27.2885C8.28113 28.9012 9.51813 30.1412 11.1456 30.7713C11.905 31.0667 12.7719 31.2666 14.0436 31.325C24.6766 31.8062 28.6181 31.5442 30.2802 27.2885C30.5751 26.5309 30.7781 25.6648 30.8342 24.3963C31.3202 13.736 30.7555 11.4254 28.9023 9.57442C27.4324 8.10819 25.7034 7.1101 14.0436 7.64728ZM14.1415 29.1811C12.9773 29.1286 12.3456 28.9347 11.9241 28.7715C10.8638 28.3594 10.0674 27.5662 9.65784 26.5121C8.94858 24.6957 9.18382 16.0686 9.2471 14.6727C9.30919 13.3053 9.58621 12.0556 10.551 11.0908C11.745 9.89973 13.2877 9.31599 23.7917 9.79005C25.1625 9.85198 26.4151 10.1284 27.3823 11.0908C28.5763 12.2819 29.1685 13.8365 28.6862 24.3002C28.6336 25.4615 28.439 26.0917 28.2754 26.5121C27.1948 29.2814 24.7088 29.6658 14.1415 29.1811ZM23.9076 13.1275C23.9076 13.9161 24.5488 14.5572 25.3405 14.5572C26.1321 14.5572 26.7745 13.9161 26.7745 13.1275C26.7745 12.3391 26.1321 11.6984 25.3405 11.6984C24.5488 11.6984 23.9076 12.3391 23.9076 13.1275ZM12.8352 19.4856C12.8352 22.8635 15.5803 25.6022 18.9666 25.6022C22.3529 25.6022 25.0981 22.8635 25.0981 19.4856C25.0981 16.1076 22.3529 13.3707 18.9666 13.3707C15.5803 13.3707 12.8352 16.1076 12.8352 19.4856ZM14.9869 19.4856C14.9869 17.294 16.7684 15.5158 18.9666 15.5158C21.1649 15.5158 22.9464 17.294 22.9464 19.4856C22.9464 21.6783 21.1649 23.457 18.9666 23.457C16.7684 23.457 14.9869 21.6783 14.9869 19.4856Z" fill="white"/>
</g>
<defs>
<clipPath id="clip0_132_288">
<rect width="24" height="24" fill="white" transform="translate(7 7.5)"/>
</clipPath>
</defs>
</svg>
