<svg width="49" height="48" viewBox="0 0 49 48" fill="none" xmlns="http://www.w3.org/2000/svg">
<circle cx="24.5" cy="24" r="24" fill="#8C51FF"/>
<g clip-path="url(#clip0_702_4383)">
<path d="M9.5 24C9.5 20.0218 11.0804 16.2064 13.8934 13.3934C16.7064 10.5804 20.5218 9 24.5 9C28.4782 9 32.2936 10.5804 35.1066 13.3934C37.9196 16.2064 39.5 20.0218 39.5 24C39.5 27.9782 37.9196 31.7936 35.1066 34.6066C32.2936 37.4196 28.4782 39 24.5 39C20.5218 39 16.7064 37.4196 13.8934 34.6066C11.0804 31.7936 9.5 27.9782 9.5 24ZM23.5625 11.0194C22.3062 11.4019 21.0594 12.5569 20.0244 14.4975C19.6836 15.1428 19.3903 15.812 19.1469 16.5H23.5625V11.0194ZM17.1688 16.5C17.4816 15.5041 17.8832 14.5384 18.3687 13.6144C18.6951 13.0026 19.0694 12.4176 19.4881 11.865C17.1653 12.8289 15.1666 14.4372 13.7281 16.5H17.1688ZM16.0775 23.0625C16.1337 21.4181 16.3362 19.8413 16.6625 18.375H12.6388C11.9413 19.8476 11.5242 21.4372 11.4088 23.0625H16.0775ZM18.5881 18.375C18.2193 19.9121 18.007 21.4826 17.9544 23.0625H23.5625V18.375H18.5881ZM25.4375 18.375V23.0625H31.0437C30.9917 21.4827 30.78 19.9122 30.4119 18.375H25.4375ZM17.9563 24.9375C18.0083 26.5173 18.22 28.0878 18.5881 29.625H23.5625V24.9375H17.9563ZM25.4375 24.9375V29.625H30.4119C30.7625 28.1906 30.9856 26.61 31.0456 24.9375H25.4375ZM19.1469 31.5C19.4069 32.225 19.6994 32.8925 20.0244 33.5025C21.0594 35.4431 22.3081 36.5963 23.5625 36.9806V31.5H19.1469ZM19.4881 36.135C19.0694 35.5824 18.6951 34.9974 18.3687 34.3856C17.8832 33.4616 17.4816 32.4959 17.1688 31.5H13.7281C15.1643 33.565 17.1637 35.1739 19.4881 36.135ZM16.6625 29.625C16.3239 28.0838 16.1281 26.5147 16.0775 24.9375H11.4088C11.525 26.6063 11.9544 28.1869 12.6388 29.625H16.6625ZM29.5119 36.135C31.8363 35.1739 33.8357 33.565 35.2719 31.5H31.8312C31.5184 32.4959 31.1168 33.4616 30.6313 34.3856C30.3049 34.9974 29.9306 35.5824 29.5119 36.135ZM25.4375 31.5V36.9806C26.6938 36.5981 27.9406 35.4431 28.9756 33.5025C29.3006 32.8937 29.5931 32.2262 29.8531 31.5H25.4375ZM32.3375 29.625H36.3612C37.0456 28.1869 37.475 26.6063 37.5913 24.9375H32.9225C32.8719 26.5147 32.6761 28.0838 32.3375 29.625ZM37.5913 23.0625C37.4758 21.4372 37.0587 19.8476 36.3612 18.375H32.3375C32.6637 19.8413 32.8662 21.4181 32.9225 23.0625H37.5913ZM30.6313 13.6144C31.0944 14.4844 31.4975 15.4519 31.8312 16.5H35.2719C33.8357 14.435 31.8363 12.8261 29.5119 11.865C29.9206 12.3975 30.2956 12.9862 30.6313 13.6144ZM29.8531 16.5C29.6097 15.812 29.3164 15.1428 28.9756 14.4975C27.9406 12.5569 26.6938 11.4037 25.4375 11.0194V16.5H29.8531Z" fill="white"/>
</g>
<defs>
<clipPath id="clip0_702_4383">
<rect width="30" height="30" fill="white" transform="translate(9.5 9)"/>
</clipPath>
</defs>
</svg>
