<svg width="25" height="21" viewBox="0 0 25 21" fill="none" xmlns="http://www.w3.org/2000/svg">
<path fill-rule="evenodd" clip-rule="evenodd" d="M0 19.2302C0 18.9408 0.119724 18.6632 0.332833 18.4585C0.545943 18.2539 0.834981 18.1389 1.13636 18.1389H23.8636C24.165 18.1389 24.4541 18.2539 24.6672 18.4585C24.8803 18.6632 25 18.9408 25 19.2302C25 19.5196 24.8803 19.7972 24.6672 20.0018C24.4541 20.2065 24.165 20.3214 23.8636 20.3214H1.13636C0.834981 20.3214 0.545943 20.2065 0.332833 20.0018C0.119724 19.7972 0 19.5196 0 19.2302ZM0 10.5C0 10.2106 0.119724 9.93303 0.332833 9.72837C0.545943 9.52372 0.834981 9.40875 1.13636 9.40875H23.8636C24.165 9.40875 24.4541 9.52372 24.6672 9.72837C24.8803 9.93303 25 10.2106 25 10.5C25 10.7894 24.8803 11.067 24.6672 11.2717C24.4541 11.4763 24.165 11.5913 23.8636 11.5913H1.13636C0.834981 11.5913 0.545943 11.4763 0.332833 11.2717C0.119724 11.067 0 10.7894 0 10.5ZM0 1.76986C0 1.48044 0.119724 1.20287 0.332833 0.998215C0.545943 0.793562 0.834981 0.678589 1.13636 0.678589H23.8636C24.165 0.678589 24.4541 0.793562 24.6672 0.998215C24.8803 1.20287 25 1.48044 25 1.76986C25 2.05928 24.8803 2.33685 24.6672 2.5415C24.4541 2.74616 24.165 2.86113 23.8636 2.86113H1.13636C0.834981 2.86113 0.545943 2.74616 0.332833 2.5415C0.119724 2.33685 0 2.05928 0 1.76986Z" fill="white"/>
</svg>
