<svg width="48" height="49" viewBox="0 0 48 49" fill="none" xmlns="http://www.w3.org/2000/svg">
<circle cx="24" cy="24.5" r="24" fill="#3C3C3C"/>
<rect x="5.5" y="6" width="38" height="38" rx="19" stroke="white"/>
<g clip-path="url(#clip0_278_856)">
<path fill-rule="evenodd" clip-rule="evenodd" d="M19.0436 13.1473C17.0901 13.2354 15.397 13.713 14.0298 15.0744C12.6578 16.443 12.1862 18.1428 12.0978 20.076C12.0429 21.2826 11.7217 30.398 12.6531 32.7885C13.2811 34.4012 14.5181 35.6412 16.1456 36.2713C16.905 36.5667 17.7719 36.7666 19.0436 36.825C29.6766 37.3062 33.6181 37.0442 35.2802 32.7885C35.5751 32.0309 35.7781 31.1648 35.8342 29.8963C36.3202 19.236 35.7555 16.9254 33.9023 15.0744C32.4324 13.6082 30.7034 12.6101 19.0436 13.1473ZM19.1415 34.6811C17.9773 34.6286 17.3456 34.4347 16.9241 34.2715C15.8638 33.8594 15.0674 33.0662 14.6578 32.0121C13.9486 30.1957 14.1838 21.5686 14.2471 20.1727C14.3092 18.8053 14.5862 17.5556 15.551 16.5908C16.745 15.3997 18.2877 14.816 28.7917 15.29C30.1625 15.352 31.4151 15.6284 32.3823 16.5908C33.5763 17.7819 34.1685 19.3365 33.6862 29.8002C33.6336 30.9615 33.439 31.5917 33.2754 32.0121C32.1948 34.7814 29.7088 35.1658 19.1415 34.6811ZM28.9076 18.6275C28.9076 19.4161 29.5488 20.0572 30.3405 20.0572C31.1321 20.0572 31.7745 19.4161 31.7745 18.6275C31.7745 17.8391 31.1321 17.1984 30.3405 17.1984C29.5488 17.1984 28.9076 17.8391 28.9076 18.6275ZM17.8352 24.9856C17.8352 28.3635 20.5803 31.1022 23.9666 31.1022C27.3529 31.1022 30.0981 28.3635 30.0981 24.9856C30.0981 21.6076 27.3529 18.8707 23.9666 18.8707C20.5803 18.8707 17.8352 21.6076 17.8352 24.9856ZM19.9869 24.9856C19.9869 22.794 21.7684 21.0158 23.9666 21.0158C26.1649 21.0158 27.9464 22.794 27.9464 24.9856C27.9464 27.1783 26.1649 28.957 23.9666 28.957C21.7684 28.957 19.9869 27.1783 19.9869 24.9856Z" fill="white"/>
</g>
<defs>
<clipPath id="clip0_278_856">
<rect width="24" height="24" fill="white" transform="translate(12 13)"/>
</clipPath>
</defs>
</svg>
