<svg width="49" height="48" viewBox="0 0 49 48" fill="none" xmlns="http://www.w3.org/2000/svg">
<circle cx="24.5" cy="24" r="24" fill="#A97DFF"/>
<rect x="6" y="5.5" width="38" height="38" rx="19" stroke="white"/>
<g clip-path="url(#clip0_702_4401)">
<path fill-rule="evenodd" clip-rule="evenodd" d="M19.5436 12.6473C17.5901 12.7354 15.897 13.213 14.5298 14.5744C13.1578 15.943 12.6862 17.6428 12.5978 19.576C12.5429 20.7826 12.2217 29.898 13.1531 32.2885C13.7811 33.9012 15.0181 35.1412 16.6456 35.7713C17.405 36.0667 18.2719 36.2666 19.5436 36.325C30.1766 36.8062 34.1181 36.5442 35.7802 32.2885C36.0751 31.5309 36.2781 30.6648 36.3342 29.3963C36.8202 18.736 36.2555 16.4254 34.4023 14.5744C32.9324 13.1082 31.2034 12.1101 19.5436 12.6473ZM19.6415 34.1811C18.4773 34.1286 17.8456 33.9347 17.4241 33.7715C16.3638 33.3594 15.5674 32.5662 15.1578 31.5121C14.4486 29.6957 14.6838 21.0686 14.7471 19.6727C14.8092 18.3053 15.0862 17.0556 16.051 16.0908C17.245 14.8997 18.7877 14.316 29.2917 14.79C30.6625 14.852 31.9151 15.1284 32.8823 16.0908C34.0763 17.2819 34.6685 18.8365 34.1862 29.3002C34.1336 30.4615 33.939 31.0917 33.7754 31.5121C32.6948 34.2814 30.2088 34.6658 19.6415 34.1811ZM29.4076 18.1275C29.4076 18.9161 30.0488 19.5572 30.8405 19.5572C31.6321 19.5572 32.2745 18.9161 32.2745 18.1275C32.2745 17.3391 31.6321 16.6984 30.8405 16.6984C30.0488 16.6984 29.4076 17.3391 29.4076 18.1275ZM18.3352 24.4856C18.3352 27.8635 21.0803 30.6022 24.4666 30.6022C27.8529 30.6022 30.5981 27.8635 30.5981 24.4856C30.5981 21.1076 27.8529 18.3707 24.4666 18.3707C21.0803 18.3707 18.3352 21.1076 18.3352 24.4856ZM20.4869 24.4856C20.4869 22.294 22.2684 20.5158 24.4666 20.5158C26.6649 20.5158 28.4464 22.294 28.4464 24.4856C28.4464 26.6783 26.6649 28.457 24.4666 28.457C22.2684 28.457 20.4869 26.6783 20.4869 24.4856Z" fill="white"/>
</g>
<defs>
<clipPath id="clip0_702_4401">
<rect width="24" height="24" fill="white" transform="translate(12.5 12.5)"/>
</clipPath>
</defs>
</svg>
