<svg width="43" height="43" viewBox="0 0 43 43" fill="none" xmlns="http://www.w3.org/2000/svg">
<g clip-path="url(#clip0_25_148)">
<path d="M23.7743 8.46676C23.9949 8.33506 24.2588 8.29638 24.508 8.35925C24.7571 8.42211 24.971 8.58136 25.1027 8.80197C25.2344 9.02257 25.2731 9.28646 25.2102 9.53558C25.1474 9.7847 24.9881 9.99864 24.7675 10.1303L16.4496 15.0962C16.229 15.2279 15.9651 15.2666 15.716 15.2037C15.4668 15.1408 15.2529 14.9816 15.1212 14.761C14.9895 14.5404 14.9508 14.2765 15.0137 14.0274C15.0766 13.7783 15.2358 13.5643 15.4564 13.4326L23.7743 8.46676ZM26.7538 13.4575C26.9745 13.3258 27.2383 13.2871 27.4875 13.35C27.7366 13.4129 27.9505 13.5721 28.0822 13.7927C28.2139 14.0133 28.2526 14.2772 28.1897 14.5263C28.1269 14.7755 27.9676 14.9894 27.747 15.1211L19.4291 20.087C19.2085 20.2187 18.9446 20.2573 18.6955 20.1945C18.4464 20.1316 18.2324 19.9724 18.1007 19.7517C17.969 19.5311 17.9303 19.2673 17.9932 19.0181C18.0561 18.769 18.2153 18.5551 18.4359 18.4234L26.7538 13.4575ZM31.0617 18.7835C30.93 18.5629 30.7161 18.4036 30.467 18.3408C30.2179 18.2779 29.954 18.3166 29.7334 18.4483L21.4154 23.4141C21.1948 23.5458 21.0356 23.7598 20.9727 24.0089C20.9098 24.258 20.9485 24.5219 21.0802 24.7425C21.2119 24.9631 21.4259 25.1224 21.675 25.1852C21.9241 25.2481 22.188 25.2094 22.4086 25.0777L30.7265 20.1119C30.9471 19.9802 31.1064 19.7662 31.1693 19.5171C31.2321 19.268 31.1934 19.0041 31.0617 18.7835ZM32.7129 23.439C32.9335 23.3073 33.1974 23.2687 33.4465 23.3315C33.6956 23.3944 33.9095 23.5536 34.0413 23.7742C34.173 23.9948 34.2116 24.2587 34.1488 24.5079C34.0859 24.757 33.9266 24.9709 33.706 25.1026L25.3881 30.0685C25.1675 30.2002 24.9036 30.2388 24.6545 30.176C24.4054 30.1131 24.1914 29.9539 24.0597 29.7333C23.928 29.5127 23.8894 29.2488 23.9522 28.9997C24.0151 28.7505 24.1743 28.5366 24.3949 28.4049L32.7129 23.439Z" fill="white" style="mix-blend-mode:overlay"/>
<path d="M28.6037 3.32707C28.0769 2.44464 27.2211 1.80764 26.2247 1.55619C25.2282 1.30473 24.1726 1.45942 23.2902 1.98624L3.32717 13.9043C2.44475 14.4311 1.80775 15.2869 1.55629 16.2833C1.30484 17.2798 1.45953 18.3354 1.98634 19.2178L13.9044 39.1808C14.4312 40.0632 15.287 40.7003 16.2835 40.9517C17.2799 41.2032 18.3355 41.0485 19.2179 40.5217L39.1809 28.6036C40.0634 28.0768 40.7004 27.221 40.9518 26.2245C41.2033 25.2281 41.0486 24.1725 40.5218 23.2901L28.6037 3.32707ZM7.64751 13.5815L21.5519 36.8717L18.2247 38.8581C17.7835 39.1215 17.2557 39.1988 16.7575 39.0731C16.2593 38.9474 15.8314 38.6289 15.568 38.1877L3.64993 18.2246C3.38652 17.7834 3.30918 17.2556 3.4349 16.7574C3.56063 16.2592 3.87913 15.8313 4.32034 15.5679L7.64751 13.5815ZM9.3111 12.5884L24.2834 3.64982C24.7246 3.38642 25.2524 3.30907 25.7506 3.4348C26.2488 3.56052 26.6767 3.87903 26.9401 4.32024L38.8582 24.2833C39.1216 24.7245 39.1989 25.2523 39.0732 25.7505C38.9475 26.2487 38.629 26.6766 38.1878 26.94L23.2155 35.8786L9.3111 12.5884Z" fill="white" style="mix-blend-mode:overlay"/>
</g>
<defs>
<clipPath id="clip0_25_148">
<rect width="31" height="31" fill="white" transform="translate(0 15.8906) rotate(-30.8375)"/>
</clipPath>
</defs>
</svg>
