<svg width="49" height="48" viewBox="0 0 49 48" fill="none" xmlns="http://www.w3.org/2000/svg">
<circle cx="24.5" cy="24" r="24" fill="#A97DFF"/>
<rect x="5" y="4.5" width="38" height="38" rx="19" stroke="white"/>
<g clip-path="url(#clip0_702_4409)">
<path d="M32.0156 14H15.9844C15.1643 14 14.5 14.6643 14.5 15.4844V31.5156C14.5 32.3357 15.1643 33 15.9844 33H32.0156C32.8357 33 33.5 32.3357 33.5 31.5156V15.4844C33.5 14.6643 32.8357 14 32.0156 14ZM21.343 27.4744H19.4912V21.548H21.343V27.4744ZM20.367 20.8059H20.3521C19.6805 20.8059 19.2463 20.3531 19.2463 19.7779C19.2463 19.1916 19.6953 18.75 20.3781 18.75C21.0609 18.75 21.4803 19.1916 21.4951 19.7779C21.4988 20.3494 21.0646 20.8059 20.367 20.8059ZM28.75 27.4744H26.6496V24.4092C26.6496 23.6076 26.323 23.0584 25.5994 23.0584C25.0465 23.0584 24.7385 23.4295 24.5975 23.7857C24.5455 23.9119 24.5529 24.09 24.5529 24.2719V27.4744H22.4711C22.4711 27.4744 22.4971 22.0416 22.4711 21.548H24.5529V22.4795C24.6754 22.0713 25.3396 21.4924 26.401 21.4924C27.7184 21.4924 28.75 22.3459 28.75 24.1791V27.4744Z" fill="white"/>
</g>
<defs>
<clipPath id="clip0_702_4409">
<rect width="19" height="19" fill="white" transform="translate(14.5 14)"/>
</clipPath>
</defs>
</svg>
