<svg width="48" height="49" viewBox="0 0 48 49" fill="none" xmlns="http://www.w3.org/2000/svg">
<circle cx="24" cy="24.5" r="24" fill="#3C3C3C"/>
<rect x="4.5" y="5" width="38" height="38" rx="19" stroke="white"/>
<g clip-path="url(#clip0_278_861)">
<path d="M31.5156 14.5H15.4844C14.6643 14.5 14 15.1643 14 15.9844V32.0156C14 32.8357 14.6643 33.5 15.4844 33.5H31.5156C32.3357 33.5 33 32.8357 33 32.0156V15.9844C33 15.1643 32.3357 14.5 31.5156 14.5ZM20.843 27.9744H18.9912V22.048H20.843V27.9744ZM19.867 21.3059H19.8521C19.1805 21.3059 18.7463 20.8531 18.7463 20.2779C18.7463 19.6916 19.1953 19.25 19.8781 19.25C20.5609 19.25 20.9803 19.6916 20.9951 20.2779C20.9988 20.8494 20.5646 21.3059 19.867 21.3059ZM28.25 27.9744H26.1496V24.9092C26.1496 24.1076 25.823 23.5584 25.0994 23.5584C24.5465 23.5584 24.2385 23.9295 24.0975 24.2857C24.0455 24.4119 24.0529 24.59 24.0529 24.7719V27.9744H21.9711C21.9711 27.9744 21.9971 22.5416 21.9711 22.048H24.0529V22.9795C24.1754 22.5713 24.8396 21.9924 25.901 21.9924C27.2184 21.9924 28.25 22.8459 28.25 24.6791V27.9744Z" fill="white"/>
</g>
<defs>
<clipPath id="clip0_278_861">
<rect width="19" height="19" fill="white" transform="translate(14 14.5)"/>
</clipPath>
</defs>
</svg>
