<svg width="45" height="46" viewBox="0 0 45 46" fill="none" xmlns="http://www.w3.org/2000/svg">
<circle cx="22.5" cy="23" r="22.5" fill="#DBE4FF" fill-opacity="0.42"/>
<g clip-path="url(#clip0_139_461)">
<path d="M22 7.5C15.373 7.5 10 12.873 10 19.5C10 22.1095 10.8555 24.504 12.2775 26.465C12.303 26.512 12.307 26.5645 12.336 26.6095L20.336 38.6095C20.707 39.166 21.332 39.5 22 39.5C22.668 39.5 23.293 39.166 23.664 38.6095L31.664 26.6095C31.6935 26.5645 31.697 26.512 31.7225 26.465C33.1445 24.504 34 22.1095 34 19.5C34 12.873 28.627 7.5 22 7.5ZM22 23.5C19.791 23.5 18 21.709 18 19.5C18 17.291 19.791 15.5 22 15.5C24.209 15.5 26 17.291 26 19.5C26 21.709 24.209 23.5 22 23.5Z" fill="white"/>
</g>
<defs>
<clipPath id="clip0_139_461">
<rect width="32" height="32" fill="white" transform="translate(6 7.5)"/>
</clipPath>
</defs>
</svg>
