<svg width="45" height="45" viewBox="0 0 45 45" fill="none" xmlns="http://www.w3.org/2000/svg">
<circle cx="22.5" cy="22.5" r="22.5" fill="#DBE4FF" fill-opacity="0.42"/>
<path d="M7.09688 13.8878C7.29221 13.0319 7.77239 12.2677 8.45879 11.7203C9.14518 11.173 9.99709 10.8749 10.875 10.875H34.125C35.0029 10.8749 35.8548 11.173 36.5412 11.7203C37.2276 12.2677 37.7078 13.0319 37.9031 13.8878L22.5 23.3021L7.09688 13.8878ZM7 16.1004V29.8644L18.2433 22.9708L7 16.1004ZM20.0994 24.1081L7.37006 31.9104C7.68457 32.5736 8.18096 33.1338 8.80145 33.5259C9.42195 33.9179 10.141 34.1257 10.875 34.125H34.125C34.8589 34.1252 35.5777 33.9169 36.1978 33.5246C36.8179 33.1322 37.3139 32.5717 37.628 31.9085L24.8986 24.1062L22.5 25.5729L20.0994 24.1081ZM26.7567 22.9728L38 29.8644V16.1004L26.7567 22.9728Z" fill="white"/>
</svg>
