<svg width="49" height="48" viewBox="0 0 49 48" fill="none" xmlns="http://www.w3.org/2000/svg">
<circle cx="24.5" cy="24" r="24" fill="#8C51FF"/>
<g clip-path="url(#clip0_702_4372)">
<path fill-rule="evenodd" clip-rule="evenodd" d="M24.4348 25.7255C24.3732 25.7718 24.2989 25.7979 24.2219 25.8004C24.145 25.8029 24.0692 25.7816 24.0048 25.7394C22.5844 24.845 21.3233 23.7199 20.2734 22.4103C18.9882 20.8484 18.1239 18.9837 17.7627 16.9935C17.4644 15.1463 17.7488 13.3708 18.6735 11.9259C19.0469 11.3389 19.5157 10.8185 20.0607 10.3862C21.2531 9.39062 22.7521 8.83626 24.3053 8.81641C25.8094 8.84067 27.2497 9.42802 28.3418 10.4625C28.7613 10.847 29.124 11.2891 29.4192 11.7756C30.4064 13.3939 30.6191 15.4746 30.1844 17.5831C29.8203 19.2562 29.1237 20.8391 28.136 22.2379C27.1483 23.6366 25.8897 24.8226 24.4348 25.7255ZM20.0422 25.8966V32.3283L27.0125 35.3337V27.0502C27.5376 26.6495 28.0357 26.2147 28.5037 25.7487V35.269L34.2834 32.3583V19.4118L32.0617 20.2672C32.2848 19.6781 32.4686 19.075 32.6119 18.4616L34.7619 17.6316C34.9454 17.5647 35.1478 17.5725 35.3255 17.6533C35.5033 17.7342 35.6421 17.8817 35.7121 18.0639C35.7457 18.1494 35.7629 18.2403 35.763 18.3321V32.8276C35.7636 32.9761 35.7199 33.1214 35.6376 33.2449C35.5552 33.3685 35.4379 33.4647 35.3006 33.5212L28.0875 37.1439C27.9829 37.1969 27.8673 37.2246 27.75 37.2246C27.6327 37.2246 27.5171 37.1969 27.4125 37.1439L19.3209 33.6368L12.3575 37.1439C12.2702 37.1882 12.1751 37.2148 12.0775 37.2222C11.9799 37.2297 11.8819 37.2178 11.7889 37.1873C11.6959 37.1568 11.6099 37.1083 11.5357 37.0445C11.4615 36.9808 11.4006 36.903 11.3564 36.8156C11.3041 36.7116 11.2764 36.5969 11.2755 36.4804V21.1249C11.2755 20.9635 11.3277 20.8065 11.4244 20.6773C11.5211 20.5481 11.657 20.4537 11.8119 20.4082L15.5987 18.9471C15.7393 19.4237 15.9061 19.8921 16.0981 20.3504L12.769 21.6335V35.2736L18.5487 32.363V24.3268C19.0139 24.8802 19.5126 25.4045 20.0422 25.8966ZM24.0256 12.1016C24.6529 12.1016 25.2662 12.2876 25.7878 12.6362C26.3094 12.9847 26.7159 13.4801 26.956 14.0597C27.1961 14.6393 27.2589 15.277 27.1365 15.8923C27.0141 16.5076 26.712 17.0728 26.2684 17.5164C25.8248 17.96 25.2597 18.2621 24.6444 18.3845C24.0291 18.5068 23.3913 18.444 22.8117 18.204C22.2321 17.9639 21.7367 17.5573 21.3882 17.0357C21.0397 16.5141 20.8537 15.9008 20.8537 15.2735C20.8537 14.4323 21.1878 13.6255 21.7827 13.0306C22.3775 12.4358 23.1843 12.1016 24.0256 12.1016Z" fill="white"/>
</g>
<defs>
<clipPath id="clip0_702_4372">
<rect width="24.4898" height="28.4084" fill="white" transform="translate(11.2755 8.81641)"/>
</clipPath>
</defs>
</svg>
