<svg width="48" height="49" viewBox="0 0 48 49" fill="none" xmlns="http://www.w3.org/2000/svg">
<circle cx="24" cy="24.5" r="24" fill="#090814"/>
<g clip-path="url(#clip0_271_843)">
<path fill-rule="evenodd" clip-rule="evenodd" d="M23.9348 26.2255C23.8732 26.2718 23.7989 26.2979 23.7219 26.3004C23.645 26.3029 23.5692 26.2816 23.5048 26.2394C22.0844 25.345 20.8233 24.2199 19.7734 22.9103C18.4882 21.3484 17.6239 19.4837 17.2627 17.4935C16.9644 15.6463 17.2488 13.8708 18.1735 12.4259C18.5469 11.8389 19.0157 11.3185 19.5607 10.8862C20.7531 9.89062 22.2521 9.33626 23.8053 9.31641C25.3094 9.34067 26.7497 9.92802 27.8418 10.9625C28.2613 11.347 28.624 11.7891 28.9192 12.2756C29.9064 13.8939 30.1191 15.9746 29.6844 18.0831C29.3203 19.7562 28.6237 21.3391 27.636 22.7379C26.6483 24.1366 25.3897 25.3226 23.9348 26.2255ZM19.5422 26.3966V32.8283L26.5125 35.8337V27.5502C27.0376 27.1495 27.5357 26.7147 28.0037 26.2487V35.769L33.7834 32.8583V19.9118L31.5617 20.7672C31.7848 20.1781 31.9686 19.575 32.1119 18.9616L34.2619 18.1316C34.4454 18.0647 34.6478 18.0725 34.8255 18.1533C35.0033 18.2342 35.1421 18.3817 35.2121 18.5639C35.2457 18.6494 35.2629 18.7403 35.263 18.8321V33.3276C35.2636 33.4761 35.2199 33.6214 35.1376 33.7449C35.0552 33.8685 34.9379 33.9647 34.8006 34.0212L27.5875 37.6439C27.4829 37.6969 27.3673 37.7246 27.25 37.7246C27.1327 37.7246 27.0171 37.6969 26.9125 37.6439L18.8209 34.1368L11.8575 37.6439C11.7702 37.6882 11.6751 37.7148 11.5775 37.7222C11.4799 37.7297 11.3819 37.7178 11.2889 37.6873C11.1959 37.6568 11.1099 37.6083 11.0357 37.5445C10.9615 37.4808 10.9006 37.403 10.8564 37.3156C10.8041 37.2116 10.7764 37.0969 10.7755 36.9804V21.6249C10.7755 21.4635 10.8277 21.3065 10.9244 21.1773C11.0211 21.0481 11.157 20.9537 11.3119 20.9082L15.0987 19.4471C15.2393 19.9237 15.4061 20.3921 15.5981 20.8504L12.269 22.1335V35.7736L18.0487 32.863V24.8268C18.5139 25.3802 19.0126 25.9045 19.5422 26.3966ZM23.5256 12.6016C24.1529 12.6016 24.7662 12.7876 25.2878 13.1362C25.8094 13.4847 26.2159 13.9801 26.456 14.5597C26.6961 15.1393 26.7589 15.777 26.6365 16.3923C26.5141 17.0076 26.212 17.5728 25.7684 18.0164C25.3248 18.46 24.7597 18.7621 24.1444 18.8845C23.5291 19.0068 22.8913 18.944 22.3117 18.704C21.7321 18.4639 21.2367 18.0573 20.8882 17.5357C20.5397 17.0141 20.3537 16.4008 20.3537 15.7735C20.3537 14.9323 20.6878 14.1255 21.2827 13.5306C21.8775 12.9358 22.6843 12.6016 23.5256 12.6016Z" fill="white"/>
</g>
<defs>
<clipPath id="clip0_271_843">
<rect width="24.4898" height="28.4084" fill="white" transform="translate(10.7755 9.31641)"/>
</clipPath>
</defs>
</svg>
