<svg width="36" height="48" viewBox="0 0 36 48" fill="none" xmlns="http://www.w3.org/2000/svg">
<g clip-path="url(#clip0_187_397)">
<path fill-rule="evenodd" clip-rule="evenodd" d="M5.40762 0H22.5115V8.57985L22.5206 8.70897C22.6692 10.7477 23.4238 12.388 24.7663 13.5352C26.0601 14.6415 27.8763 15.2567 30.1966 15.2929L36 15.2962V41.6405C36 44.6097 33.5616 47.0488 30.5924 47.0488H5.40762C2.43781 47.0488 0 44.6156 0 41.6405V5.40762C0 2.43321 2.43321 0 5.40762 0ZM9.8977 37.8525C9.37671 37.8525 8.95362 37.4294 8.95362 36.9084C8.95362 36.3874 9.37671 35.9644 9.8977 35.9644H22.9119C23.4329 35.9644 23.856 36.3874 23.856 36.9084C23.856 37.4294 23.4329 37.8525 22.9119 37.8525H9.8977ZM9.8977 21.7322C9.37671 21.7322 8.95362 21.3092 8.95362 20.7882C8.95362 20.2671 9.37671 19.8441 9.8977 19.8441H26.1023C26.6233 19.8441 27.0464 20.2671 27.0464 20.7882C27.0464 21.3092 26.6233 21.7322 26.1023 21.7322H9.8977ZM9.8977 29.5172C9.37671 29.5172 8.95362 29.0942 8.95362 28.5732C8.95362 28.0521 9.37671 27.6291 9.8977 27.6291H25.2438C25.7649 27.6291 26.188 28.0521 26.188 28.5732C26.188 29.0942 25.7649 29.5172 25.2438 29.5172H9.8977ZM24.3996 0.290112L36 12.8402V13.4094L30.2115 13.4126C28.3584 13.3808 26.9484 12.9234 25.9901 12.1038C25.0453 11.296 24.5107 10.0969 24.3996 8.57599V0.290112Z" fill="#3366FF"/>
</g>
<defs>
<clipPath id="clip0_187_397">
<rect width="36" height="47.0488" fill="white"/>
</clipPath>
</defs>
</svg>
