<svg width="42" height="42" viewBox="0 0 42 42" fill="none" xmlns="http://www.w3.org/2000/svg">
<g clip-path="url(#clip0_251_779)">
<path d="M31.0417 0H17.0869H16.0055L15.2414 0.764039L4.67742 11.3287L3.91338 12.0927V13.1736V34.954C3.91338 38.839 7.07388 42.0001 10.9595 42.0001H31.0417C34.9261 42.0001 38.0866 38.839 38.0866 34.954V7.04616C38.0866 3.1605 34.9261 0 31.0417 0ZM35.4783 34.9539C35.4783 37.4048 33.492 39.3911 31.0417 39.3911H10.9595C8.50812 39.3911 6.52181 37.4048 6.52181 34.9539V13.1735H13.3891C15.4305 13.1735 17.0869 11.5183 17.0869 9.47633V2.60892H31.0417C33.492 2.60892 35.4783 4.59523 35.4783 7.04616V34.9539Z" fill="#5C5C5C"/>
<path d="M14.105 20.7363H11.7648C11.3192 20.7363 11.0522 21.0261 11.0522 21.4603V27.5104C11.0522 28.0344 11.3971 28.3798 11.8759 28.3798C12.3444 28.3798 12.6892 28.0345 12.6892 27.5104V25.6724C12.6892 25.6277 12.7121 25.6054 12.7568 25.6054H14.105C15.7535 25.6054 16.7455 24.6025 16.7455 23.1763C16.7455 21.7278 15.7649 20.7363 14.105 20.7363ZM14.0043 24.1901H12.7568C12.7121 24.1901 12.6892 24.1678 12.6892 24.1236V22.2181C12.6892 22.1734 12.7121 22.1511 12.7568 22.1511H14.0043C14.695 22.1511 15.1074 22.5635 15.1074 23.1763C15.1075 23.7891 14.695 24.1901 14.0043 24.1901Z" fill="#5C5C5C"/>
<path d="M20.5235 20.7363H18.7296C18.284 20.7363 18.0171 21.0261 18.0171 21.4603V27.5997C18.0171 28.0345 18.2839 28.3128 18.7296 28.3128H20.5235C22.1387 28.3128 23.1422 27.8002 23.5431 26.5636C23.6874 26.1288 23.7664 25.6054 23.7664 24.5245C23.7664 23.4438 23.6873 22.9202 23.5431 22.4856C23.1421 21.2489 22.1387 20.7363 20.5235 20.7363ZM21.9726 25.9954C21.7824 26.5968 21.2372 26.8534 20.4788 26.8534H19.7216C19.6769 26.8534 19.654 26.8311 19.654 26.7865V22.2628C19.654 22.2181 19.6769 22.1957 19.7216 22.1957H20.4788C21.2372 22.1957 21.7824 22.4523 21.9726 23.0538C22.0505 23.3104 22.1055 23.756 22.1055 24.5246C22.1055 25.2932 22.0504 25.7388 21.9726 25.9954Z" fill="#5C5C5C"/>
<path d="M29.627 20.7363H25.951C25.5054 20.7363 25.2373 21.0261 25.2373 21.4603V27.5104C25.2373 28.0344 25.5833 28.3798 26.0621 28.3798C26.5295 28.3798 26.8754 28.0345 26.8754 27.5104V25.3488C26.8754 25.3046 26.8971 25.2823 26.9418 25.2823H29.0817C29.5605 25.2823 29.8389 24.9926 29.8389 24.5801C29.8389 24.1677 29.5605 23.8785 29.0817 23.8785H26.9418C26.8971 23.8785 26.8754 23.8562 26.8754 23.8115V22.2181C26.8754 22.1734 26.8971 22.1511 26.9418 22.1511H29.627C30.084 22.1511 30.3853 21.8504 30.3853 21.4495C30.3853 21.037 30.084 20.7363 29.627 20.7363Z" fill="#5C5C5C"/>
</g>
<defs>
<clipPath id="clip0_251_779">
<rect width="42" height="42" fill="white"/>
</clipPath>
</defs>
</svg>
