<svg width="20" height="20" viewBox="0 0 20 20" fill="none" xmlns="http://www.w3.org/2000/svg">
<path d="M4.0625 17.1055C4.0625 17.1055 2.875 17.1055 2.875 15.918C2.875 14.7305 4.0625 11.168 10 11.168C15.9375 11.168 17.125 14.7305 17.125 15.918C17.125 17.1055 15.9375 17.1055 15.9375 17.1055H4.0625ZM10 9.98047C10.9448 9.98047 11.851 9.60513 12.5191 8.93704C13.1872 8.26894 13.5625 7.3628 13.5625 6.41797C13.5625 5.47313 13.1872 4.567 12.5191 3.8989C11.851 3.2308 10.9448 2.85547 10 2.85547C9.05517 2.85547 8.14903 3.2308 7.48093 3.8989C6.81283 4.567 6.4375 5.47313 6.4375 6.41797C6.4375 7.3628 6.81283 8.26894 7.48093 8.93704C8.14903 9.60513 9.05517 9.98047 10 9.98047Z" fill="white"/>
</svg>
