<svg width="44" height="44" viewBox="0 0 44 44" fill="none" xmlns="http://www.w3.org/2000/svg">
<path d="M11.3671 17.8726C11.4097 17.8699 11.4592 17.8685 11.5087 17.8685C12.0367 17.8685 12.5304 18.0156 12.9511 18.2714L12.9387 18.2645C13.3031 18.5629 13.5341 19.0125 13.5341 19.5157C13.5341 19.5817 13.53 19.6477 13.5217 19.7124L13.5231 19.7041C13.5245 19.7206 13.5245 19.7399 13.5245 19.7591C13.5245 20.0204 13.4447 20.2637 13.3072 20.4645L13.31 20.4604C13.1684 20.6542 12.991 20.8124 12.7861 20.9292L12.7779 20.9334C12.5689 21.0502 12.3241 21.1382 12.0656 21.1822L12.0519 21.1836C11.8222 21.2276 11.5582 21.2524 11.2887 21.2537H9.43387V17.8726H11.3671ZM24.5767 37.465C24.5905 37.465 24.607 37.465 24.6221 37.465C25.9875 37.465 27.3102 37.2849 28.5697 36.948L28.4639 36.9728C29.8072 36.6166 30.9815 36.1354 32.0746 35.5235L31.9962 35.5634C34.2347 34.3163 36.0772 32.6113 37.4481 30.5653L37.4839 30.5089C38.8561 28.4615 39.7581 25.9892 39.9767 23.3245L39.9809 23.2695H23.309V6.59761C21.2341 6.76261 19.3242 7.32086 17.6041 8.19811L17.6907 8.15824C15.884 9.07261 14.3495 10.2579 13.0721 11.6782L13.0597 11.692H20.2881C21.2314 11.6961 21.9959 12.4606 22 13.4025V30.5996C21.9959 31.5429 21.2314 32.3074 20.2895 32.3115H13.0597C13.7857 33.1173 14.5805 33.835 15.4426 34.4648L15.4866 34.495C16.2937 35.0876 17.2081 35.6294 18.1761 36.0763L18.2751 36.1175C19.1482 36.5245 20.1712 36.871 21.2355 37.1061L21.3359 37.124C22.3066 37.3413 23.4204 37.4664 24.563 37.4664C24.5685 37.4664 24.574 37.4664 24.5781 37.4664L24.5767 37.465ZM16.8245 19.6037C16.8259 19.5666 16.8259 19.5226 16.8259 19.48C16.8259 18.8007 16.6815 18.1545 16.4202 17.5715L16.4326 17.6017C16.1796 17.0559 15.8139 16.6007 15.3629 16.2501L15.3546 16.2446C14.8981 15.8995 14.3591 15.6341 13.7734 15.4856L13.7417 15.4787C13.1574 15.3261 12.4864 15.2381 11.7947 15.2381C11.7714 15.2381 11.748 15.2381 11.7246 15.2381H11.7287H6.27274V28.7489H9.43387V24.0367H11.5679C11.5706 24.0367 11.5734 24.0367 11.5761 24.0367C12.2595 24.0367 12.9181 23.9295 13.5355 23.7315L13.4901 23.7439C14.1322 23.5445 14.6905 23.2557 15.1855 22.8859L15.1704 22.8969C15.6626 22.5297 16.0655 22.0691 16.3584 21.5411L16.3694 21.5191C16.654 20.9884 16.8217 20.3586 16.8217 19.6904C16.8217 19.6601 16.8217 19.6299 16.8204 19.601V19.6051L16.8245 19.6037ZM25.8665 6.59624V20.712H39.9822C39.8214 18.7636 39.314 16.9679 38.5234 15.3371L38.5632 15.4279C36.9944 12.1581 34.4149 9.58136 31.2359 8.05786L31.1424 8.01799C29.6037 7.26999 27.8135 6.76399 25.9242 6.60311L25.8679 6.59899L25.8665 6.59624ZM24.5767 3.95898C24.5946 3.95898 24.6166 3.95898 24.6386 3.95898C26.3257 3.95898 27.9579 4.19411 29.5047 4.63411L29.3796 4.60386C35.508 6.34186 40.2366 11.0705 41.943 17.071L41.9746 17.1989C42.3843 18.6385 42.6195 20.2926 42.6195 22.0017C42.6195 23.7109 42.3843 25.3636 41.9444 26.9325L41.9746 26.8046C40.2366 32.933 35.508 37.6616 29.5075 39.368L29.3796 39.3996C27.9414 39.8108 26.29 40.0486 24.5836 40.0486C21.5311 40.0486 18.6546 39.291 16.1342 37.9545L16.2319 38.0013C13.6166 36.6098 11.4524 34.6889 9.81611 32.3693L9.77761 32.3115H3.09374C3.08687 32.3115 3.07862 32.3115 3.07037 32.3115C2.60424 32.3115 2.18487 32.119 1.88374 31.8083C1.57299 31.5085 1.38049 31.0878 1.38049 30.623C1.38049 30.6147 1.38049 30.6079 1.38049 30.5996V13.4052C1.38049 13.3984 1.38049 13.3901 1.38049 13.3832C1.38049 12.9185 1.57299 12.4977 1.88374 12.198C2.18349 11.8872 2.60424 11.6947 3.06899 11.6947C3.07724 11.6947 3.08412 11.6947 3.09237 11.6947H9.77487C11.4496 9.31736 13.6139 7.39786 16.1329 6.05311L16.2305 6.00499C18.6464 4.71799 21.5132 3.96173 24.5561 3.96173C24.563 3.96173 24.5699 3.96173 24.5767 3.96173H24.5754L24.5767 3.95898Z" fill="#5C5C5C"/>
</svg>
