<svg width="40" height="28" viewBox="0 0 40 28" fill="none" xmlns="http://www.w3.org/2000/svg">
<path d="M0.75 2.89877C0.75 3.65928 1.05211 4.38865 1.58988 4.92641C2.12764 5.46418 2.85701 5.76629 3.61752 5.76629C4.37803 5.76629 5.1074 5.46418 5.64516 4.92641C6.18293 4.38865 6.48504 3.65928 6.48504 2.89877C6.48504 2.13826 6.18293 1.40889 5.64516 0.871127C5.1074 0.333362 4.37803 0.03125 3.61752 0.03125C2.85701 0.03125 2.12764 0.333362 1.58988 0.871127C1.05211 1.40889 0.75 2.13826 0.75 2.89877Z" fill="white"/>
<path d="M0.75 13.6331C0.75 14.3937 1.05211 15.123 1.58988 15.6608C2.12764 16.1985 2.85701 16.5007 3.61752 16.5007C4.37803 16.5007 5.1074 16.1985 5.64516 15.6608C6.18293 15.123 6.48504 14.3937 6.48504 13.6331C6.48504 12.8726 6.18293 12.1433 5.64516 11.6055C5.1074 11.0677 4.37803 10.7656 3.61752 10.7656C2.85701 10.7656 2.12764 11.0677 1.58988 11.6055C1.05211 12.1433 0.75 12.8726 0.75 13.6331Z" fill="white"/>
<path d="M0.75 25.1019C0.75 25.8624 1.05211 26.5918 1.58988 27.1295C2.12764 27.6673 2.85701 27.9694 3.61752 27.9694C4.37803 27.9694 5.1074 27.6673 5.64516 27.1295C6.18293 26.5918 6.48504 25.8624 6.48504 25.1019C6.48504 24.3414 6.18293 23.612 5.64516 23.0743C5.1074 22.5365 4.37803 22.2344 3.61752 22.2344C2.85701 22.2344 2.12764 22.5365 1.58988 23.0743C1.05211 23.612 0.75 24.3414 0.75 25.1019Z" fill="white"/>
<path d="M37.247 4.18193H13.1167C12.408 4.18193 11.8334 3.60731 11.8334 2.89858C11.8334 2.18986 12.408 1.61523 13.1167 1.61523H37.247C37.9557 1.61523 38.5304 2.18986 38.5304 2.89858C38.5304 3.60731 37.9557 4.18193 37.247 4.18193ZM37.247 14.9161H13.1167C12.408 14.9161 11.8334 14.3415 11.8334 13.6328C11.8334 12.9241 12.408 12.3494 13.1167 12.3494H37.247C37.9557 12.3494 38.5304 12.9241 38.5304 13.6328C38.5304 14.3415 37.9557 14.9161 37.247 14.9161ZM37.9667 26.386H13.8367C13.128 26.386 12.5534 25.8113 12.5534 25.1026C12.5534 24.3939 13.128 23.8193 13.8367 23.8193H37.9667C38.6754 23.8193 39.25 24.3939 39.25 25.1026C39.25 25.8113 38.6754 26.386 37.9667 26.386Z" fill="white"/>
</svg>
