<svg width="14" height="14" viewBox="0 0 14 14" fill="none" xmlns="http://www.w3.org/2000/svg">
<g clip-path="url(#clip0_708_1426)">
<path d="M13.8723 0.127027C13.9329 0.187692 13.9743 0.264817 13.9914 0.348819C14.0085 0.432822 14.0005 0.520001 13.9685 0.599527L8.87691 13.3282C8.83204 13.4402 8.75711 13.5378 8.66037 13.61C8.56363 13.6823 8.44884 13.7265 8.32862 13.7377C8.2084 13.7489 8.08741 13.7267 7.97898 13.6736C7.87054 13.6205 7.77886 13.5385 7.71403 13.4367L4.93328 9.06603L0.562657 6.28528C0.46056 6.22051 0.378339 6.1288 0.325068 6.02026C0.271796 5.91173 0.249545 5.79058 0.260769 5.6702C0.271992 5.54981 0.316255 5.43487 0.388673 5.33805C0.46109 5.24123 0.558847 5.1663 0.671157 5.12153L13.3998 0.0316515C13.4793 -0.000362719 13.5665 -0.00830748 13.6505 0.00880418C13.7345 0.0259158 13.8116 0.0673298 13.8723 0.127902V0.127027ZM5.80653 8.81053L8.22241 12.6063L12.3638 2.25328L5.80653 8.81053ZM11.7452 1.63465L1.39216 5.77603L5.18878 8.19103L11.7452 1.63465Z" fill="white"/>
</g>
<defs>
<clipPath id="clip0_708_1426">
<rect width="14" height="14" fill="white"/>
</clipPath>
</defs>
</svg>
