<svg width="57" height="57" viewBox="0 0 57 57" fill="none" xmlns="http://www.w3.org/2000/svg">
<rect width="57" height="57" rx="28.5" fill="#3366FF"/>
<rect x="9.5" y="9.5" width="38" height="38" rx="19" stroke="white"/>
<g clip-path="url(#clip0_146_582)">
<path d="M36.5156 19H20.4844C19.6643 19 19 19.6643 19 20.4844V36.5156C19 37.3357 19.6643 38 20.4844 38H36.5156C37.3357 38 38 37.3357 38 36.5156V20.4844C38 19.6643 37.3357 19 36.5156 19ZM25.843 32.4744H23.9912V26.548H25.843V32.4744ZM24.867 25.8059H24.8521C24.1805 25.8059 23.7463 25.3531 23.7463 24.7779C23.7463 24.1916 24.1953 23.75 24.8781 23.75C25.5609 23.75 25.9803 24.1916 25.9951 24.7779C25.9988 25.3494 25.5646 25.8059 24.867 25.8059ZM33.25 32.4744H31.1496V29.4092C31.1496 28.6076 30.823 28.0584 30.0994 28.0584C29.5465 28.0584 29.2385 28.4295 29.0975 28.7857C29.0455 28.9119 29.0529 29.09 29.0529 29.2719V32.4744H26.9711C26.9711 32.4744 26.9971 27.0416 26.9711 26.548H29.0529V27.4795C29.1754 27.0713 29.8396 26.4924 30.901 26.4924C32.2184 26.4924 33.25 27.3459 33.25 29.1791V32.4744Z" fill="white"/>
</g>
<defs>
<clipPath id="clip0_146_582">
<rect width="19" height="19" fill="white" transform="translate(19 19)"/>
</clipPath>
</defs>
</svg>
