<svg width="39" height="39" viewBox="0 0 39 39" fill="none" xmlns="http://www.w3.org/2000/svg">
<rect x="0.5" y="0.5" width="38" height="38" rx="19" stroke="white"/>
<g clip-path="url(#clip0_170_351)">
<path d="M30.2784 19.5655C30.2776 13.6135 25.4527 8.78857 19.5 8.78857C13.5473 8.78857 8.72162 13.6143 8.72162 19.5669C8.72162 24.9252 12.6316 29.37 17.7534 30.2044L17.8152 30.2131V22.682H15.0782V19.5655H17.8152V17.1922C17.8016 17.0722 17.7944 16.9327 17.7944 16.7919C17.7944 14.6909 19.4978 12.9875 21.5987 12.9875C21.7001 12.9875 21.8007 12.9918 21.9006 12.999L21.8877 12.9983C22.7495 13.0105 23.5832 13.0867 24.3968 13.2225L24.3005 13.2089V15.8611H22.9406C22.8788 15.8524 22.8077 15.8474 22.7358 15.8474C21.8755 15.8474 21.1776 16.5446 21.1776 17.4057C21.1776 17.4545 21.1797 17.5027 21.184 17.5509L21.1833 17.5444V19.5655H24.1726L23.6946 22.682H21.1833V30.2131C26.3676 29.3693 30.2776 24.9238 30.2784 19.5655Z" fill="white"/>
</g>
<defs>
<clipPath id="clip0_170_351">
<rect width="23" height="23" fill="white" transform="translate(8 8)"/>
</clipPath>
</defs>
</svg>
