<svg width="57" height="57" viewBox="0 0 57 57" fill="none" xmlns="http://www.w3.org/2000/svg">
<rect width="57" height="57" rx="28.5" fill="#3366FF"/>
<rect x="9.5" y="9.5" width="38" height="38" rx="19" stroke="white"/>
<g clip-path="url(#clip0_146_563)">
<path fill-rule="evenodd" clip-rule="evenodd" d="M23.0436 16.6473C21.0901 16.7354 19.397 17.213 18.0298 18.5744C16.6578 19.943 16.1862 21.6428 16.0978 23.576C16.0429 24.7826 15.7217 33.898 16.6531 36.2885C17.2811 37.9012 18.5181 39.1412 20.1456 39.7713C20.905 40.0667 21.7719 40.2666 23.0436 40.325C33.6766 40.8062 37.6181 40.5442 39.2802 36.2885C39.5751 35.5309 39.7781 34.6648 39.8342 33.3963C40.3202 22.736 39.7555 20.4254 37.9023 18.5744C36.4324 17.1082 34.7034 16.1101 23.0436 16.6473ZM23.1415 38.1811C21.9773 38.1286 21.3456 37.9347 20.9241 37.7715C19.8638 37.3594 19.0674 36.5662 18.6578 35.5121C17.9486 33.6957 18.1838 25.0686 18.2471 23.6727C18.3092 22.3053 18.5862 21.0556 19.551 20.0908C20.745 18.8997 22.2877 18.316 32.7917 18.79C34.1625 18.852 35.4151 19.1284 36.3823 20.0908C37.5763 21.2819 38.1685 22.8365 37.6862 33.3002C37.6336 34.4615 37.439 35.0917 37.2754 35.5121C36.1948 38.2814 33.7088 38.6658 23.1415 38.1811ZM32.9076 22.1275C32.9076 22.9161 33.5488 23.5572 34.3405 23.5572C35.1321 23.5572 35.7745 22.9161 35.7745 22.1275C35.7745 21.3391 35.1321 20.6984 34.3405 20.6984C33.5488 20.6984 32.9076 21.3391 32.9076 22.1275ZM21.8352 28.4856C21.8352 31.8635 24.5803 34.6022 27.9666 34.6022C31.3529 34.6022 34.0981 31.8635 34.0981 28.4856C34.0981 25.1076 31.3529 22.3707 27.9666 22.3707C24.5803 22.3707 21.8352 25.1076 21.8352 28.4856ZM23.9869 28.4856C23.9869 26.294 25.7684 24.5158 27.9666 24.5158C30.1649 24.5158 31.9464 26.294 31.9464 28.4856C31.9464 30.6783 30.1649 32.457 27.9666 32.457C25.7684 32.457 23.9869 30.6783 23.9869 28.4856Z" fill="white"/>
</g>
<defs>
<clipPath id="clip0_146_563">
<rect width="24" height="24" fill="white" transform="translate(16 16.5)"/>
</clipPath>
</defs>
</svg>
