<svg width="58" height="58" viewBox="0 0 58 58" fill="none" xmlns="http://www.w3.org/2000/svg">
<rect x="0.5" y="0.890625" width="57" height="57" rx="28.5" fill="#3366FF"/>
<rect x="10" y="10.3906" width="38" height="38" rx="19" stroke="white"/>
<g clip-path="url(#clip0_436_1826)">
<path d="M39.7784 29.4566C39.7777 23.5047 34.9527 18.6797 29.0001 18.6797C23.0474 18.6797 18.2217 23.5054 18.2217 29.4581C18.2217 34.8163 22.1317 39.2611 27.2535 40.0956L27.3153 40.1042V32.5731H24.5783V29.4566H27.3153V27.0833C27.3016 26.9633 27.2945 26.8238 27.2945 26.683C27.2945 24.5821 28.9979 22.8786 31.0988 22.8786C31.2001 22.8786 31.3008 22.8829 31.4007 22.8901L31.3877 22.8894C32.2495 22.9016 33.0833 22.9778 33.8969 23.1137L33.8006 23.1V25.7522H32.4407C32.3789 25.7436 32.3077 25.7385 32.2359 25.7385C31.3755 25.7385 30.6776 26.4357 30.6776 27.2968C30.6776 27.3457 30.6798 27.3938 30.6841 27.442L30.6834 27.4355V29.4566H33.6726L33.1947 32.5731H30.6834V40.1042C35.8677 39.2604 39.7777 34.8149 39.7784 29.4566Z" fill="white"/>
</g>
<defs>
<clipPath id="clip0_436_1826">
<rect width="23" height="23" fill="white" transform="translate(17.5 17.8906)"/>
</clipPath>
</defs>
</svg>
