<svg width="45" height="45" viewBox="0 0 45 45" fill="none" xmlns="http://www.w3.org/2000/svg">
<circle cx="22.5" cy="22.5" r="22.5" fill="#DBE4FF" fill-opacity="0.42"/>
<g clip-path="url(#clip0_139_469)">
<path fill-rule="evenodd" clip-rule="evenodd" d="M12.9456 10.7981C13.219 10.5251 13.5473 10.3134 13.9087 10.1769C14.2701 10.0403 14.6564 9.9822 15.042 10.0063C15.4276 10.0304 15.8037 10.1361 16.1453 10.3165C16.487 10.497 16.7864 10.7479 17.0237 11.0528L19.8284 14.6559C20.3424 15.3169 20.5237 16.1778 20.3206 16.9903L19.4659 20.4122C19.422 20.5894 19.4245 20.775 19.4733 20.951C19.522 21.127 19.6152 21.2874 19.744 21.4169L23.5831 25.2559C23.7127 25.385 23.8734 25.4784 24.0497 25.5271C24.226 25.5758 24.4118 25.5782 24.5893 25.5341L28.0096 24.6794C28.4106 24.5797 28.829 24.5722 29.2333 24.6575C29.6376 24.7427 30.0174 24.9185 30.344 25.1716L33.9471 27.9747C35.2424 28.9825 35.3612 30.8966 34.2018 32.0544L32.5862 33.67C31.4299 34.8262 29.7018 35.3341 28.0909 34.7669C23.9669 33.3178 20.223 30.9571 17.1378 27.8606C14.0415 24.7759 11.6808 21.0324 10.2315 16.9091C9.66587 15.2997 10.1737 13.57 11.3299 12.4137L12.9456 10.7981Z" fill="white"/>
</g>
<defs>
<clipPath id="clip0_139_469">
<rect width="25" height="25" fill="white" transform="translate(10 10)"/>
</clipPath>
</defs>
</svg>
