<svg width="49" height="96" viewBox="0 0 49 96" fill="none" xmlns="http://www.w3.org/2000/svg">
<g clip-path="url(#clip0_83_261)">
<path d="M48.9964 28.5893L24.4947 14.2962L0 28.5893V14.2962L24.4982 0.00317383L49 14.2962V28.5893H48.9964Z" fill="#A435F0"/>
<path d="M0 40.5913H12.8338V72.0984C12.8338 80.2386 18.8488 84.2073 24.4982 84.2073C30.1963 84.2073 36.1674 80.133 36.1674 71.9892V40.5913H49V72.8497C49 80.3478 46.6673 86.1346 42.0009 90.1021C37.332 94.0672 31.5009 95.9982 24.3902 95.9982C17.2866 95.9982 11.452 94.0708 6.89469 90.1021C2.33266 86.1382 0 80.5662 0 73.1701V40.5913Z" fill="black"/>
</g>
<defs>
<clipPath id="clip0_83_261">
<rect width="49" height="96" fill="white"/>
</clipPath>
</defs>
</svg>
