<svg width="25" height="25" viewBox="0 0 25 25" fill="none" xmlns="http://www.w3.org/2000/svg">
<path d="M20.9015 4.22541C19.8014 3.11466 18.4911 2.23408 17.0471 1.63505C15.6031 1.03602 14.0543 0.730537 12.491 0.736411C5.9405 0.736411 0.602 6.07341 0.596 12.6254C0.596 14.7239 1.145 16.7654 2.1815 18.5729L0.5 24.7364L6.806 23.0834C8.54973 24.0348 10.5046 24.5325 12.491 24.5309H12.497C19.049 24.5309 24.386 19.1939 24.392 12.6359C24.3933 11.073 24.0855 9.52527 23.4862 8.08183C22.8869 6.63839 22.0094 5.32776 20.9015 4.22541ZM12.491 22.5179C10.7198 22.5165 8.98134 22.04 7.457 21.1379L7.097 20.9219L3.356 21.9029L4.355 18.2534L4.121 17.8769C3.13071 16.3024 2.60697 14.4795 2.6105 12.6194C2.6105 7.18041 7.046 2.74341 12.497 2.74341C13.7956 2.74108 15.0818 2.99582 16.2815 3.49295C17.4812 3.99008 18.5706 4.71975 19.487 5.63991C20.4063 6.55664 21.1352 7.64623 21.6315 8.8459C22.1279 10.0456 22.3819 11.3316 22.379 12.6299C22.373 18.0884 17.9375 22.5179 12.491 22.5179ZM17.9135 15.1169C17.618 14.9684 16.1585 14.2499 15.884 14.1479C15.611 14.0504 15.4115 13.9994 15.2165 14.2964C15.017 14.5919 14.447 15.2654 14.276 15.4589C14.105 15.6584 13.928 15.6809 13.631 15.5339C13.3355 15.3839 12.377 15.0719 11.243 14.0564C10.358 13.2689 9.7655 12.2939 9.5885 11.9984C9.4175 11.7014 9.572 11.5424 9.7205 11.3939C9.851 11.2619 10.016 11.0459 10.1645 10.8749C10.3145 10.7039 10.364 10.5779 10.4615 10.3799C10.559 10.1789 10.5125 10.0079 10.439 9.85941C10.364 9.71091 9.7715 8.24541 9.521 7.65441C9.281 7.07091 9.0365 7.15191 8.8535 7.14441C8.6825 7.13391 8.483 7.13391 8.2835 7.13391C8.13286 7.13775 7.98463 7.17263 7.8481 7.23638C7.71156 7.30014 7.58965 7.39138 7.49 7.50441C7.217 7.80141 6.4535 8.51991 6.4535 9.98541C6.4535 11.4509 7.5185 12.8594 7.6685 13.0589C7.8155 13.2584 9.7595 16.2569 12.743 17.5469C13.448 17.8544 14.003 18.0359 14.4365 18.1739C15.149 18.4019 15.7925 18.3674 16.3055 18.2939C16.8755 18.2069 18.062 17.5739 18.3125 16.8794C18.5585 16.1834 18.5585 15.5894 18.4835 15.4649C18.41 15.3389 18.2105 15.2654 17.9135 15.1169Z" fill="white"/>
</svg>
